<svg width="108" height="141" viewBox="0 0 108 141" fill="none" xmlns="http://www.w3.org/2000/svg">
<g clip-path="url(#clip0_188_13)">
<path d="M49.1501 141C48.2852 140.4 47.813 139.634 47.6977 138.524C47.4643 136.294 47.0031 134.085 46.7752 131.854C46.6819 130.948 46.2453 130.725 45.5095 130.598C43.2143 130.207 40.919 129.8 38.6265 129.387C37.5778 129.197 36.5345 128.998 36.183 127.737C35.8536 126.559 36.5427 125.848 37.2785 125.118C39.7494 122.676 42.2067 120.219 44.5815 117.405C44.0764 117.405 43.5712 117.405 43.066 117.405C31.1752 117.405 19.2844 117.413 7.39365 117.399C3.50052 117.394 0.804433 115.325 0.131784 111.844C-0.0137275 111.087 0.00549101 110.294 0.00274551 109.517C0 75.804 0 42.0907 0 8.37463C0 3.51398 1.07075 1.88092 5.49101 0H85.9426C88.6607 0.914297 90.6951 2.51982 91.2771 5.4968C91.4254 6.25412 91.4281 7.04449 91.4281 7.82109C91.4364 30.5215 91.4391 53.222 91.4171 75.9252C91.4171 76.9331 91.6038 77.5583 92.5977 78.076C94.9094 79.2795 96.2355 81.3173 96.3618 83.9225C96.5128 87.062 97.2458 89.9095 99.0771 92.5478C101.018 95.3402 100.963 98.3971 99.0442 101.187C97.287 103.742 96.4908 106.491 96.3618 109.545C96.3179 110.567 95.9802 111.624 95.5601 112.569C95.2306 113.315 95.3981 113.692 95.9143 114.204C99.5548 117.815 103.16 121.464 106.797 125.082C107.577 125.856 108.266 126.63 107.893 127.834C107.511 129.067 106.427 129.216 105.386 129.409C102.786 129.885 100.186 130.359 97.5094 130.849C97.136 133.385 96.716 135.864 96.4332 138.359C96.3069 139.488 95.9088 140.356 95 141.006H93.6273C92.7487 140.207 91.8372 139.444 90.9998 138.607C86.7992 134.399 82.5382 130.252 78.4721 125.914C76.8769 124.212 75.0457 123.306 72.8822 123.207C70.4772 123.1 68.1517 123.378 66.2546 125.344C61.6202 130.15 56.854 134.826 52.1317 139.549C51.621 140.061 51.0582 140.521 50.5173 141.006H49.1446L49.1501 141ZM86.9969 75.2367C87.1039 75.2009 87.2083 75.1679 87.3154 75.1321C87.3154 74.6887 87.3154 74.2453 87.3154 73.8019C87.3154 51.823 87.3154 29.8441 87.3154 7.86516C87.3154 4.92674 86.5137 4.13086 83.5568 4.13086C58.3503 4.13086 33.141 4.13086 7.93451 4.13086C4.88151 4.13086 4.12101 4.89094 4.12101 7.94777C4.12101 41.7657 4.12101 75.581 4.12101 109.399C4.12101 112.549 4.84857 113.276 8.00315 113.279C21.0416 113.279 34.08 113.279 47.1184 113.279H48.5104C48.1809 111.597 47.6757 110.046 47.6153 108.479C47.5192 106.053 46.8795 103.897 45.4848 101.925C43.0386 98.4742 43.1292 95.0098 45.5644 91.5949C46.885 89.7443 47.533 87.7202 47.5686 85.4317C47.6291 81.5404 49.2407 78.5855 53.0789 77.2746C55.6844 76.3823 57.7105 74.8374 59.3826 72.6563C61.5817 69.7867 64.5331 68.7402 68.0282 69.7978C70.749 70.6212 73.3819 70.6129 76.1027 69.795C79.5291 68.765 82.3982 69.784 84.6687 72.5517C85.421 73.4687 86.2226 74.3445 86.9996 75.2395L86.9969 75.2367ZM78.4117 120.158C79.724 120.26 80.652 119.55 81.3411 118.613C83.532 115.637 86.338 113.571 89.8412 112.409C91.4446 111.877 92.2792 110.691 92.3094 108.983C92.3753 105.356 93.3692 102.046 95.5244 99.0911C96.5787 97.6453 96.5924 96.0755 95.5409 94.6132C93.4433 91.6941 92.3506 88.4582 92.3369 84.8616C92.3287 82.8898 91.2854 81.6836 89.509 81.097C86.2803 80.0285 83.6446 78.1724 81.6514 75.3964C80.479 73.7634 78.9306 73.1685 76.973 73.8185C73.6976 74.909 70.4195 74.8897 67.1414 73.8267C65.1289 73.174 63.5612 73.824 62.3559 75.4983C60.4204 78.1917 57.8725 80.0423 54.7234 81.0502C52.7934 81.6671 51.7336 82.9587 51.7446 84.9993C51.761 88.5711 50.6107 91.7299 48.568 94.616C47.522 96.0921 47.5549 97.6397 48.5845 99.1021C50.5942 101.952 51.7418 105.056 51.7281 108.587C51.7199 110.724 52.8263 112.078 54.8799 112.715C57.9082 113.651 60.3133 115.477 62.2159 118.008C62.5976 118.514 63.0231 119.062 63.5557 119.368C64.1954 119.734 65.0383 120.169 65.6808 120.035C69.9418 119.151 74.1754 118.658 78.4144 120.167L78.4117 120.158ZM61.9386 123.598C60.6867 122.279 59.27 120.982 58.0894 119.492C56.6508 117.674 54.5532 117.126 52.6121 116.253C52.4007 116.16 51.9615 116.281 51.783 116.46C48.7025 119.52 45.6468 122.604 42.4263 125.845C44.5047 126.236 46.3661 126.638 48.2468 126.928C49.6854 127.148 50.413 127.878 50.5667 129.345C50.7397 130.998 51.0472 132.634 51.297 134.272C54.9486 130.612 58.4958 127.054 61.9386 123.604V123.598ZM92.8119 134.322C93.0672 132.636 93.3747 131.017 93.5367 129.387C93.6904 127.858 94.4454 127.126 95.9472 126.911C97.8059 126.644 99.6427 126.228 101.748 125.826C98.4896 122.571 95.4613 119.525 92.3863 116.523C92.1557 116.297 91.5626 116.267 91.2085 116.377C88.6579 117.168 86.489 118.528 84.9432 120.781C84.1663 121.913 83.3481 123.017 82.5848 124.083C85.5637 127.068 89.1137 130.623 92.8091 134.327L92.8119 134.322Z" fill="white"/>
<path d="M45.7127 16.1792C54.3144 16.1792 62.9133 16.1792 71.515 16.1792C72.0174 16.1792 72.5281 16.1544 73.0222 16.2343C74.0518 16.4022 74.6476 17.0384 74.7135 18.0904C74.7794 19.1369 74.2934 19.8777 73.2831 20.1586C72.7669 20.3018 72.1986 20.3018 71.655 20.3018C54.3638 20.3073 37.0698 20.3073 19.7786 20.3018C19.235 20.3018 18.6694 20.3018 18.1505 20.1586C17.1375 19.8804 16.6542 19.1396 16.7174 18.0931C16.7805 17.0412 17.3763 16.4022 18.4059 16.2315C18.8973 16.1516 19.408 16.1764 19.9132 16.1764C28.5148 16.1764 37.1138 16.1764 45.7154 16.1764L45.7127 16.1792Z" fill="white"/>
<path d="M45.7071 52.6685C37.1081 52.6685 28.5065 52.6685 19.9075 52.6685C19.4051 52.6685 18.8917 52.696 18.403 52.6106C17.3762 52.4372 16.7832 51.7955 16.7228 50.7435C16.6624 49.6943 17.1511 48.9562 18.1614 48.6808C18.6776 48.5404 19.2459 48.5431 19.7895 48.5431C37.0807 48.5376 54.3746 48.5376 71.6658 48.5431C72.2095 48.5431 72.7778 48.5431 73.2939 48.6863C74.3043 48.9672 74.7875 49.7108 74.7161 50.7573C74.6447 51.8093 74.0434 52.4427 73.0194 52.6106C72.5279 52.6905 72.0173 52.6657 71.5121 52.6657C62.9132 52.6657 54.3115 52.6657 45.7126 52.6657L45.7071 52.6685Z" fill="white"/>
<path d="M45.8608 32.3749C54.4597 32.3749 63.0614 32.3749 71.6603 32.3776C72.1627 32.3776 72.6761 32.3639 73.1621 32.463C74.1312 32.6613 74.6611 33.3085 74.7133 34.2944C74.7682 35.3381 74.285 36.0789 73.2746 36.3543C72.7557 36.4947 72.1874 36.4975 71.6438 36.4975C54.3526 36.503 37.0614 36.503 19.7702 36.4975C19.2238 36.4975 18.6583 36.4947 18.1394 36.3488C17.129 36.0679 16.6568 35.3188 16.7199 34.2751C16.7803 33.2864 17.3157 32.6475 18.2849 32.4575C18.7736 32.3611 19.287 32.3776 19.7867 32.3776C28.4789 32.3721 37.1685 32.3749 45.8608 32.3749Z" fill="white"/>
<path d="M26.6343 101.275C24.1633 101.275 21.6951 101.289 19.2242 101.269C17.5906 101.256 16.7093 100.507 16.7065 99.1957C16.7065 97.8711 17.5522 97.155 19.2269 97.1523C24.1661 97.1385 29.1053 97.1385 34.0472 97.1523C35.7164 97.1578 36.5675 97.8766 36.5648 99.2012C36.5648 100.507 35.6752 101.258 34.0444 101.272C31.5735 101.291 29.1053 101.278 26.6343 101.278V101.275Z" fill="white"/>
<path d="M26.634 85.0737C24.163 85.0737 21.6921 85.0847 19.2239 85.0709C17.604 85.0627 16.709 84.3053 16.709 83C16.709 81.6891 17.5875 80.9538 19.2321 80.9483C24.174 80.9373 29.1132 80.9373 34.0551 80.9483C35.6942 80.9511 36.5755 81.6919 36.5727 83.0055C36.5727 84.3081 35.6695 85.0627 34.0496 85.0709C31.5786 85.0847 29.1077 85.0737 26.6395 85.0737H26.634Z" fill="white"/>
<path d="M72.0556 113.904C63.4457 113.712 56.5078 107.584 55.2751 98.9644C55.0582 97.4497 55.7418 96.3564 57.0157 96.1747C58.1936 96.0095 59.0968 96.8466 59.3384 98.3282C60.4833 105.387 65.719 109.831 72.6432 109.622C78.9661 109.432 84.3692 104.191 84.8167 97.8133C85.2725 91.3498 80.8028 85.4317 74.5842 84.264C68.8818 83.1928 63.5308 85.7456 60.7249 90.8707C59.9095 92.3578 59.0584 92.8452 57.9327 92.4597C56.6698 92.0273 56.2058 90.6641 56.9279 89.2706C59.4675 84.3659 63.4512 81.2623 68.8406 80.1993C77.8981 78.4175 86.5903 84.2227 88.5946 93.2473C90.5631 102.107 85.0172 111.032 76.1053 113.271C74.7874 113.601 73.4064 113.698 72.0556 113.902V113.904Z" fill="white"/>
</g>
<defs>
<clipPath id="clip0_188_13">
<rect width="108" height="141" fill="white"/>
</clipPath>
</defs>
</svg>
