<?xml version="1.0" encoding="UTF-8"?>
<svg id="_Слой_1" data-name="Слой 1" xmlns="http://www.w3.org/2000/svg" viewBox="0 0 1516.25 530.1">
  <path d="M15.23,187.35c1.01-2.26,2.18-4.46,2.98-6.79,.45-1.32,.5-2.87,.38-4.29-.49-5.61-1.76-11.24-.49-16.84,.69-3.02,1.69-6.16,3.39-8.69,1.89-2.81,2.72-5.56,2.63-8.84-.14-5.55,.5-11.06,3.07-16.02,1.24-2.4,3.21-4.63,5.36-6.27,1.64-1.25,2.36-2.45,2.68-4.38,1.05-6.26,2.55-12.42,5.94-17.89,1.82-2.93,3.42-6.16,7.88-5.91,.77,.04,1.83-1.97,2.46-3.19,2.53-4.85,4.79-9.84,7.47-14.6,1.11-1.98,2.86-3.72,4.66-5.15,1.35-1.07,3.46-2.33,4.84-1.98,3.03,.77,3.77-1.17,5.06-2.87,2.91-3.83,5.74-7.75,8.95-11.32,1.62-1.8,3.94-3.01,6.04-4.33,2.08-1.3,4.32-1.9,6.49-.13,1.43,1.17,2.36,.41,3.39-.61,2.6-2.58,5.15-5.22,7.9-7.63,3.81-3.34,8.1-5.81,13.27-6.41,2.75-.32,5.07,.15,5.54,3.43,.37,2.56,1.71,1.83,3.13,1.05,2.92-1.6,5.74-3.42,8.78-4.73,3.19-1.37,6.53-2.52,9.91-3.25,2.02-.44,4.32-.21,6.36,.3,3.06,.76,4.31,2.31,3.96,5.43-.37,3.26-1.28,6.5-2.38,9.6-.9,2.56-1.22,4.37,1.11,6.57,3.05,2.87,2.76,4.59,.03,7.7-7.12,8.1-15.63,13.94-26.37,16.06-4.63,.91-8.15,3.25-11.23,6.84-2.24,2.6-5.08,4.85-8.03,6.65-6.26,3.84-11.37,8.66-14.62,15.29-2.48,5.06-6.77,8.58-10.36,12.71-1.81,2.08-3.59,4.49-4.41,7.06-2.01,6.27-4.85,12.06-8.76,17.29-3.3,4.41-4.84,9.35-5.83,14.66-1.07,5.7-2.15,11.47-4.02,16.94-1.47,4.31-.07,8.2,.09,12.29,.15,3.63,.35,7.28,.06,10.89-.4,5.07-.09,9.92,2.01,14.65,2.65,5.95,4.38,12.1,5.07,18.68,.34,3.21,2.54,6.44,4.52,9.21,3.13,4.36,5.87,8.72,7.55,13.94,.89,2.75,3.55,5.08,5.81,7.18,2.05,1.91,4.71,3.13,6.95,4.85,6.43,4.95,11.01,11.16,11.95,19.44,.54,4.74,2.74,8.2,6.14,11.48,6.33,6.12,12.43,12.51,18.23,19.14,2.22,2.55,3.69,5.93,4.88,9.16,1.32,3.59,.3,5.63-3.02,7.44-1.89,1.03-3.9,1.91-5.95,2.53-5.3,1.62-9.59,.11-11.44-5.03-3.91-10.86-12.58-17.87-20.23-25.58-3.56-3.58-9.16-4.33-14.46-4.28-3.29,.03-6.7,.33-9.86-.38-10.78-2.43-20.5-6.93-27.22-16.23-1.95-2.69-3.79-5.62-1.9-9.19,.89-1.67-.4-2.32-1.32-3.28-3.1-3.23-6.43-6.31-9.08-9.89-1.94-2.61-3.27-5.81-4.26-8.94-.6-1.89-.64-4.42,.14-6.19,1.1-2.51,.28-4-1.09-5.85-3.41-4.58-5.89-9.63-7.25-15.22-.89-3.65-.91-7.16,.45-10.77,.59-1.56,.63-3.6,.2-5.23-1.18-4.48-2.73-8.86-4.14-13.29,0-2.33,0-4.67,0-7Zm65.49,84.78c.27-.25,.55-.51,.82-.76,2.54,2.27,5.27,4.35,7.56,6.84,3.49,3.8,6.66,7.88,9.99,11.82,.41,.49,.98,.84,1.47,1.25,.43-.65,1.12-1.25,1.23-1.95,.53-3.18,.22-6.27-1.22-9.25-4.56-9.41-12.24-15.14-21.8-18.65-2.47-.91-5.73-2.4-7.38-.06-1.22,1.74-.85,5.12-.25,7.53,2.05,8.25,6.5,15.31,12.16,21.54,2.69,2.96,5.99,5.35,10.25,5.67,.87,.06,1.79-.42,2.69-.64-.31-.74-.5-1.57-.95-2.22-4.21-6-8.48-11.95-12.7-17.94-.71-1-1.25-2.12-1.86-3.19Zm17.82-184.58c.71-3.28-.43-4.24-2.47-4.04-2.29,.22-4.68,.4-6.81,1.18-7.43,2.74-14.03,6.97-19.4,12.77-2.17,2.35-3.43,5.58-4.92,8.51-.37,.73,0,1.84,.04,2.77,.79-.13,1.72-.03,2.34-.43,3.22-2.02,6.41-4.08,9.5-6.28,2.02-1.44,3.83-3.17,5.81-4.68,.46-.35,1.2-.34,1.81-.49-.15,.72-.06,1.76-.5,2.1-4.31,3.29-2.66,7.28-1.48,11.25,.48,1.6,1.37,1.75,2.52,.67,7.13-6.68,11.53-14.92,13.56-23.33Zm-50.24,101.39c.58,.71,.93,.95,.93,1.18-.14,4.49,2.84,6.34,6.39,7.84,1.67,.7,2.47,.51,2.45-1.46-.04-3.32,.39-6.7-.11-9.95-.69-4.55-1.52-9.21-3.25-13.43-2.24-5.45-4.33-5.5-7.73-.57-5.29,7.68-8.31,16.26-8.57,25.6-.1,3.58,.75,7.2,1.28,10.78,.08,.54,.76,.99,1.16,1.49,.44-.44,1.1-.8,1.29-1.34,1.37-3.73,2.74-7.46,3.92-11.26,.87-2.8,1.44-5.68,2.23-8.89Zm16.77-63.34c.48,.16,.95,.33,1.43,.49-3.64,4.14-2.39,8.07-.31,12.03,.95,1.82,1.75,1.64,2.86,.2,5.34-6.93,8.07-14.88,8.84-23.49,.36-4.09-1.11-5.04-5.14-3.74-1.42,.46-2.83,1.02-4.13,1.74-7.45,4.1-13.44,9.82-17.8,17.07-1.59,2.65-2.31,5.84-3.31,8.83-.16,.47,.28,1.14,.45,1.72,.45-.18,.98-.26,1.34-.55,3.7-3.08,7.42-6.13,11.02-9.32,1.71-1.52,3.18-3.31,4.76-4.98Zm44.01-53.76c.22,.32,.44,.64,.66,.95-.74,.62-1.41,1.36-2.23,1.83-2.79,1.6-3.8,3.97-3.43,7.09,.09,.81-.15,1.66-.1,2.48,.05,.91,.26,1.8,.4,2.7,.92-.26,1.99-.29,2.75-.8,7.36-4.91,12.8-11.49,16.34-19.58,1.31-2.99,.68-3.82-2.7-3.96-10.09-.42-19.43,2.01-27.61,8.04-2.21,1.63-3.92,3.99-5.7,6.15-.55,.67-.56,1.8-.81,2.71,.92,.08,1.94,.47,2.74,.2,4.69-1.6,9.35-3.3,13.98-5.09,1.97-.76,3.83-1.81,5.73-2.73Zm-50.41,97.24c2.74-7.61,4.65-14.8,4.3-22.39-.09-1.96-.53-3.96-1.18-5.82-.88-2.52-1.76-2.71-4.12-1.39-.72,.4-1.44,.86-2.07,1.39-8.2,6.96-14.07,15.48-16.85,25.93-.58,2.19-.32,4.62-.31,6.93,0,.54,.56,1.08,.86,1.62,.47-.4,1.06-.72,1.4-1.21,3.3-4.79,6.54-9.61,9.82-14.4,.89-1.3,1.84-2.55,2.77-3.83,.34,2.55-.66,5.06,.04,6.94,.8,2.16,3.11,3.76,5.33,6.24Zm-5.35,49.37c.17-.03,.33-.06,.5-.09,.4,1.21,1.02,2.39,1.15,3.63,.33,3.26,2.06,5.13,5.15,5.87,1.39,.33,2.8,.6,4.19,.9-.07-1.44,0-2.9-.23-4.32-1.25-7.7-4.04-14.75-9.29-20.61-2.52-2.82-4.02-2.65-5.49,.81-4.09,9.63-6.47,19.61-3.85,30.08,.58,2.31,2.11,4.43,3.47,6.46,.62,.93,1.8,.93,2.09-.57,.4-2.12,.81-4.25,1.01-6.39,.5-5.25,.88-10.52,1.31-15.77ZM111.63,57.09c5.5,.36,10.74,.8,15.98,1.01,2.14,.08,4.29-.41,6.44-.47,1.02-.03,2.04,.36,3.07,.56-.77,.5-1.5,1.09-2.33,1.49-.9,.42-1.98,.5-2.8,1.02-.93,.59-2.13,1.39-2.36,2.31-.53,2.15-.56,4.44-.79,6.67,2.06-.28,4.23-.24,6.17-.89,6.43-2.19,11.9-5.9,16.16-11.24,1.82-2.28,1.68-2.78-.76-4.18-.86-.49-1.8-.85-2.72-1.24-7.44-3.12-15.25-3.43-23.05-2.37-5.1,.69-9.85,2.7-13.02,7.34Zm-50.74,213.65c-4.1,1.21-8.23,2.34-12.29,3.67-1.98,.64-2.43,2.1-1.3,3.94,.61,.99,1.06,2.12,1.82,2.97,7.41,8.38,17.32,11.36,27.92,12.71,1.51,.19,1.62-.94,.94-1.94-2.32-3.43-4.38-7.17-8.75-8.49-2.52-.76-3.55-1.6-.3-2.99,.35-.15,.51-1.15,.46-1.73-.52-5.5-2.77-7.49-8.49-8.14Zm3.27-22.52c1.22,1.52,1.99,2.17,2.36,3,1.58,3.51,4.59,4.03,7.9,3.92,2.51-.08,2.99-.72,1.95-3.07-2.5-5.66-5.72-10.89-10.32-15.12-1.08-1-2.38-1.82-3.7-2.48-3.69-1.86-5.42-1.2-5.67,2.95-.35,5.77-.13,11.6,.26,17.38,.19,2.76,1.26,5.48,2.05,8.18,.63,2.16,2.12,3.48,4.45,3.07,2.37-.41,1.8-2.53,1.75-4.04-.11-3.14-.49-6.27-.75-9.4-.09-1.11-.15-2.23-.29-4.38Zm60.3,80.93c5.15,0,7.56-3.67,5.34-8.21-.58-1.19-1.15-2.49-2.06-3.41-6.89-6.96-13.85-13.86-20.83-20.73-1.57-1.55-3.08-1.5-4.69,.25-2.27,2.48-2.45,3.07,.09,5.77,6.73,7.14,14.03,13.81,17.25,23.54,.69,2.09,2.73,2.78,4.89,2.79Zm-75.74-60.81c1.33-.11,2-.11,2.65-.22,3.47-.6,4.18-2.07,2.28-5.14-.67-1.09-1.76-1.96-2.78-2.78-1.16-.93-2.48-1.66-3.67-2.57-.5-.38-.82-.98-1.23-1.48,.7-.05,1.43-.27,2.08-.13,4.23,.94,4.22,.97,3.53-3.14-.17-.98-.13-2.05-.54-2.92-.43-.92-1.15-2.17-1.97-2.38-4.47-1.16-8.99-2.36-13.69-1.24-4.14,.99-4.68,1.95-3.09,5.87,2.6,6.41,7.74,10.68,12.86,14.9,1.05,.87,2.74,.96,3.55,1.23Zm24.16-184.45c-.76-2.08-1.76-5.23-3.05-8.25-1.57-3.65-2.33-3.78-5.22-1.16-4.18,3.79-6.12,8.91-8.39,13.91-2.47,5.42-1.84,10.24,1.65,14.86,.37,.5,.87,.9,1.3,1.35,.38-.47,.9-.89,1.12-1.43,.94-2.29,1.8-4.63,2.69-6.94,.53-1.38,.95-2.22,2.98-2.44,3.3-.35,7-5.7,6.92-9.9Zm-24.79,32.77c.27-.07,.54-.13,.82-.2,.35,1.07,.65,2.17,1.1,3.2,.16,.37,.67,.8,1.04,.81,1.43,.06,5.95-5.42,5.6-6.96-1.21-5.24-3.29-10.08-6.99-14.11-1.45-1.58-2.71-1.73-3.95,.2-3.94,6.14-6.5,12.78-6.18,20.12,.1,2.26,1.65,4.56,2.88,6.63,.47,.8,2.08,1.58,2.86,1.34,.78-.24,1.48-1.7,1.68-2.72,.54-2.75,.78-5.55,1.15-8.33Zm-13.22,111.52c.13-.17,.26-.35,.4-.52,.95,.5,1.85,1.14,2.86,1.42,.51,.14,1.63-.26,1.74-.64,1.45-4.72-1.17-9.7-5.89-11.03-2.05-.58-4.24-.85-6.38-.9-3.87-.1-4.65,.55-4.26,4.21,.78,7.4,4.11,13.71,9.49,18.72,1.35,1.26,3.92,1.42,5.98,1.66,1.95,.22,2.69-1.24,2.19-2.96-.46-1.57-1.15-3.12-2.03-4.5-1.22-1.91-2.72-3.64-4.1-5.45Zm1.59-86.87l.96-.31c.68,1.75,1.29,3.54,2.08,5.24,.37,.8,1.09,1.45,1.66,2.16,.46-.84,1.26-1.65,1.3-2.51,.16-3.27,.51-6.63-.04-9.82-.68-4.01-2.74-7.46-6.63-9.42-2.76-1.39-3.59-1.39-4.33,1.65-1.29,5.27-2.4,10.67-2.76,16.07-.29,4.37,2.02,7.98,6.09,10.09,.83,.43,1.81,.59,2.72,.87,.16-.95,.55-1.93,.45-2.85-.42-3.73-.99-7.45-1.51-11.17Zm-2.46,52.8c.45-2.05-.48-3.72-2.85-4.69-2.15-.88-4.17-2.11-6.37-2.81-4.04-1.29-4.18-1.07-4.4,3.02-.32,5.82,1.76,11.04,3.54,16.43,1.45,4.4,4.2,5.97,8.38,6.29,2.81,.21,3.01,.2,2.29-2.4-1.32-4.76-3.21-9.46-.68-14.4,.14-.27,.05-.66,.08-1.43Zm-9-39.43c-.47,.7-1.28,1.48-1.56,2.42-1.92,6.43-.7,12.75,.48,19.15,1,5.42,4.9,7.08,9.26,8.49,1.36,.44,1.85-.31,1.63-1.54-.17-.97-.46-1.94-.83-2.86-2.01-4.94-3.63-9.83-.13-14.85,.53-.76,.6-1.89,.75-2.87,.1-.62,.21-1.5-.13-1.88-2.44-2.75-5.2-5.1-9.49-6.06ZM94.12,60.57c-.26-1.29-.45-2.6-.8-3.86-1.27-4.54-2.45-5.25-6.02-2.18-3.57,3.08-6.41,7.03-9.42,10.73-4.02,4.93-3.78,10.31-1.22,15.79,.25,.54,.76,.96,1.16,1.44,.43-.47,1-.87,1.26-1.42,1.71-3.59,3.34-7.21,5.03-10.8,.35-.74,1.16-2.04,1.25-2,3.16,1.47,3.99-2.01,6.03-2.83,2.05-.82,2.94-2.58,2.74-4.88Zm26.98-18.28c-.03-3.46-.92-4.26-3.96-3.28-7.39,2.38-12.68,7.6-17.25,13.55-1.02,1.32-1.25,3.41-1.41,5.19-.29,3.26,1.39,4.33,4.19,2.76,.96-.54,1.92-1.4,2.45-2.36,3-5.44,7.27-9.36,13.13-11.51,2.14-.79,3.07-2.39,2.85-4.35Zm24.01,2.88q4.3,.49,5.74-3.74c.37-1.1,.69-2.21,1.09-3.29,.66-1.78,.4-2.78-1.82-2.81-7.62-.12-14.2,2.67-20.2,7.09-.35,.26-.51,.78-.75,1.18,.54,.23,1.07,.62,1.62,.66,4.77,.34,9.55,.62,14.32,.91Z"/>
  <path d="M1336.22,505.31c-5.55-1.66-11.22-2.98-16.59-5.09-3.82-1.5-7.24-4.02-10.79-6.18-1.74-1.06-1.99-2.55-.71-4.22,.2-.26,.38-.55,.55-.83,3.68-5.96,3.62-5.86,9.34-2.29,7.33,4.57,15.32,7.42,24,7.52,5.79,.06,11.68-.11,17.35-1.14,9.02-1.64,14.52-7.55,17.1-16.3,2.07-7,1.7-14.13,1.54-21.83-2.5,2.28-4.54,4.34-6.78,6.14-20.18,16.23-59.62,10.09-68.33-22.16-6.27-23.21,6.89-48.95,34.73-52.82,10.09-1.4,19.67-.31,28.46,4.73,3.97,2.27,7.23,5.78,10.84,8.68,.45,.37,1.11,.48,1.67,.72,.11-.47,.32-.94,.33-1.41,.04-3.17,.06-6.33,.05-9.5,0-2.04,.9-3.12,2.99-3.07,.17,0,.33-.01,.5-.01,9.25-.12,7.83-.12,7.85,7.2,.04,23.83,.07,47.66-.07,71.49-.03,4.29-.54,8.66-1.48,12.85-3.25,14.47-12.47,23.09-26.8,26.42-1.27,.29-2.5,.74-3.76,1.11h-21.98Zm9.97-46.92c.83,0,1.66,.03,2.49,0,11.92-.48,21.42-5.49,26.49-16.41,5.1-11.01,5.04-22.44-2.17-32.74-7.29-10.41-18.11-13.77-30.23-12.69-25.65,2.29-34.15,26.12-25.73,44.93,5.48,12.23,16.06,17.1,29.15,16.92Z"/>
  <path d="M765.66,505.31c-3.16-1.44-6.45-2.65-9.44-4.39-4.12-2.4-4.22-3.46-1.7-7.49,.35-.56,.71-1.13,1.08-1.68,2.13-3.18,2.08-3.1,5.09-1,10.35,7.23,23.1,5.42,28.53-6.52,.83-1.82,1.59-3.7,2.67-5.36,2.72-4.19,2.35-8.03,.27-12.57-11.49-25.12-22.66-50.39-33.93-75.61-.34-.76-.95-1.54-.91-2.28,.05-.72,.74-1.97,1.21-2,2.98-.19,6.02-.37,8.95,.04,1.07,.15,2.25,1.78,2.81,3,3.55,7.71,6.95,15.48,10.39,23.24,6,13.54,11.99,27.09,18.01,40.62,.66,1.48,1.48,2.9,2.62,5.12,3.18-7.04,6.06-13.34,8.87-19.68,6.86-15.53,13.81-31.01,20.42-46.65,1.89-4.47,4.37-6.41,9.33-5.98,5.45,.47,5.54,.15,3.37,5.04-10.96,24.63-21.95,49.25-32.95,73.86-3.4,7.6-6.84,15.17-10.33,22.72-2.2,4.75-5.22,9.02-9.42,12.1-3.03,2.22-6.62,3.67-9.96,5.47h-14.99Z"/>
  <path d="M1416.16,505.31c-3.72-1.78-7.48-3.5-11.16-5.36-2.31-1.16-3.24-2.82-1.27-5.13,.21-.25,.32-.59,.51-.86,1.14-1.61,2-3.88,3.56-4.58,.95-.42,2.95,1.63,4.53,2.48,4.97,2.68,10.09,4.18,15.81,2.45,3.48-1.05,6.57-2.7,8.4-5.83,2.68-4.59,5.18-9.3,7.33-14.16,.61-1.38,.12-3.61-.55-5.14-6.38-14.47-12.92-28.87-19.38-43.31-5.38-12-10.74-24.01-16.06-36.04-1.49-3.37-1.35-3.5,2.39-3.63q8.65-.3,12.09,7.49c8.61,19.49,17.22,38.98,25.83,58.47,.34,.76,.62,1.56,1.07,2.25,.69,1.06,1.5,2.03,2.26,3.04,.56-1,1.2-1.95,1.66-2.99,9.31-21,18.57-42.02,27.92-63.01,.79-1.77,1.8-4.39,3.19-4.74,2.97-.76,6.25-.34,9.39-.21,.27,.01,.86,1.65,.63,2.29-.89,2.5-2.02,4.92-3.11,7.36-12.26,27.52-24.53,55.04-36.81,82.56-1.02,2.28-2.17,4.5-3.18,6.78-4.25,9.55-10.64,16.8-21.05,19.8h-13.99Z"/>
  <path d="M1447.14,22.37c2.44,1.02,4.92,1.95,7.31,3.08,2.25,1.07,3.35,2.7,1.89,5.22-.41,.71-.64,1.54-.99,2.29-1.68,3.57-1.67,3.54-5.45,1.84-4.67-2.1-9.46-2.96-14.55-1.56-5.06,1.39-8.02,4.78-8.91,9.71-.7,3.9-.63,7.93-.96,11.9-.22,2.69,1.12,3.41,3.59,3.37,6.32-.11,12.65-.06,18.97,0,1.59,.01,3.81-.4,3.98,1.89,.19,2.57-.16,5.22-.66,7.76-.09,.44-2.06,.7-3.17,.71-5.66,.07-11.32,.02-16.97,.04-4.95,.02-5,.05-5,4.94-.02,21.65,0,43.3-.01,64.95q0,6.92-6.79,6.86c-1,0-2-.03-2.99-.09-1.56-.09-2.46-.91-2.52-2.5-.05-1.33-.06-2.66-.06-3.99,0-20.98,0-41.97,0-62.95,0-1.33-.06-2.67-.01-4,.08-2.34-1.06-3.28-3.35-3.23-2.99,.07-5.99-.06-8.99,0-2.25,.05-3.48-.83-3.4-3.19,0-.17,0-.33-.01-.5-.42-6.41-.13-6.72,6.37-6.73,2.16,0,4.33-.07,6.49,0,2.18,.08,2.94-.99,2.9-3.04-.06-3,.13-6,0-8.99-.47-10.91,7.45-20.76,16.55-22.93,.62-.15,1.17-.57,1.76-.87,5,0,9.99,0,14.99,0Z"/>
  <path d="M136.99,180.48c0-5.33,.04-10.66-.01-15.99-.06-5.59,1.03-5.33-5.1-7.29-10.14-3.25-20.28-6.5-30.39-9.83-2.36-.78-4.77-1.61-6.9-2.86-6.11-3.58-5.94-11,.25-14.44,1.44-.8,3.01-1.41,4.59-1.94,25.4-8.51,50.79-17.04,76.21-25.48,18.48-6.13,37.01-12.08,55.47-18.25,4.74-1.58,9.08-1.7,13.98-.05,43.67,14.76,87.43,29.25,131.14,43.86,2.19,.73,4.43,1.57,6.33,2.84,4.98,3.34,4.66,10.16-.54,13.19-1.56,.91-3.35,1.47-5.08,2.05-10.42,3.47-20.85,6.9-31.28,10.34q-5.71,1.89-5.73,8.1c0,1,.09,2.01-.02,3-.61,5.77,.77,9.81,6.15,13.68,12.78,9.17,11.89,28.53-1.13,37.62-2.7,1.89-3.31,3.83-2.58,6.7,3.29,12.9,6.59,25.8,9.84,38.71,.94,3.71,1.97,7.41,2.56,11.18,.95,6.03-2.2,9.7-8.2,9.74-9.82,.07-19.65,.08-29.47,0-7.41-.06-10.57-4.13-8.81-11.47,3.81-15.85,7.76-31.68,11.65-47.51,1.17-4.77,1.1-4.7-2.71-7.58-12.03-9.08-13.89-28.77,1-38.77,3.72-2.5,5.09-4.91,4.88-9.17-.31-6.42-.11-6.53-6.29-4.46-23.35,7.83-46.71,15.63-69.98,23.67-5.94,2.05-11.4,2.13-17.39,.02-22.28-7.86-44.68-15.37-67.05-22.98-4.09-1.39-8.27-2.54-12.37-3.91-1.9-.63-2.9-.23-2.89,1.89,.06,10.33,.03,20.66,.28,30.98,.03,1.35,1.25,3.09,2.43,3.93,18.07,12.81,37.75,21.73,60,24.1,27.83,2.97,55.11,.71,81.61-8.78,2.66-.95,5.34-1.91,8.07-2.6,3.35-.85,6.56,.36,7.93,2.7,1.56,2.65,.9,6.75-1.87,9.04-1.76,1.45-3.86,2.64-6,3.46-12.64,4.82-25.67,8.15-39.14,9.55-7.27,.76-14.55,1.5-21.85,1.72-5.29,.16-10.63-.33-15.91-.91-12.23-1.35-24.48-2.75-36.19-6.79-15.32-5.29-29.96-11.95-42.86-22.03-4.63-3.62-7.4-7.72-6.77-13.99,.5-4.95,.1-9.99,.1-14.98Zm167.89-23.2c-.03-.27-.06-.54-.09-.81-14.58-2.34-29.17-4.67-43.75-7.04-7.7-1.25-15.43-2.42-23.08-3.94-2.16-.43-4.37-1.64-6.07-3.07-2.02-1.71-2.49-4.37-1.63-6.91,.88-2.59,3.23-3.19,5.65-3.27,1.82-.06,3.69-.1,5.48,.2,22.61,3.76,45.24,7.43,67.8,11.43,17.88,3.18,17.84,3.37,34.84-1.06,.97-.25,1.95-.45,2.9-.75,4.92-1.55,9.83-3.09,14.72-4.71,.54-.18,.93-.8,1.39-1.22-.51-.35-.99-.76-1.54-1.03-.59-.29-1.25-.46-1.87-.68-14.28-5.03-28.5-10.21-42.84-15.04-24.27-8.18-48.62-16.12-72.93-24.18-3.43-1.14-6.84-1.21-10.3-.15-2.23,.68-4.5,1.22-6.7,1.96-25.09,8.34-50.19,16.67-75.27,25.09-13.56,4.55-27.07,9.26-40.59,13.92-.75,.26-1.41,.77-2.11,1.16,.72,.54,1.38,1.2,2.18,1.58,1.04,.5,2.19,.77,3.3,1.13,18.52,5.98,37.09,11.81,55.55,17.96,20.67,6.89,41.26,14.03,61.84,21.17,4.12,1.43,7.98,1.66,12.14,.14,14.06-5.14,28.18-10.1,42.28-15.14,6.24-2.23,12.47-4.5,18.7-6.75Zm27.33,76.26c-.3,0-.61,.02-.91,.03-.92,3.53-1.84,7.06-2.75,10.6-2.2,8.53-4.44,17.06-6.57,25.61-.81,3.25-.7,3.34,2.64,3.42,3.16,.08,6.33,.12,9.48,0,2.75-.11,5.5-.47,8.24-.72-.52-2.58-.89-5.2-1.58-7.74-2.8-10.41-5.69-20.79-8.55-31.19Zm-.03-24.16c6.21-.07,10.8-4.73,10.62-10.8-.17-5.95-5-10.37-11.21-10.25-5.71,.11-10.48,4.93-10.42,10.56,.06,5.94,4.91,10.56,11.01,10.49Z"/>
  <path d="M456.94,165.82c0,1.67,.27,3.38-.05,4.99-.96,4.84-.4,9.21,1.33,14.01,1.42,3.93,.48,8.81,.14,13.24-.18,2.26-1.24,4.48-2.08,6.65-1.26,3.22-1.72,6.3-.2,9.65,1.87,4.11,.65,8.32-.9,12.14-1.79,4.43-4.21,8.64-6.66,12.77-1.02,1.71-1.79,3.06-.75,4.99,1.39,2.55,.84,5.16-.05,7.73-2.36,6.81-6.63,12.23-12.14,16.75-1.8,1.47-3.75,2.6-1.88,5.59,.65,1.05-.06,3.23-.64,4.71-1.84,4.66-5.44,7.97-9.34,10.83-6.97,5.1-14.81,8.22-23.39,9.35-.98,.13-2.07,.31-2.98,.04-5.55-1.65-10.49,.68-15.51,2.32-1.17,.38-2.22,1.38-3.11,2.3-3.37,3.46-6.47,7.2-10.01,10.47-3.78,3.5-6.29,7.66-8.21,12.35-3.12,7.59-7.47,9.29-15.05,6.07-7.3-3.1-8.54-6.11-4.66-13.1,2-3.6,4.52-7.02,7.32-10.04,5.21-5.61,10.77-10.89,16.25-16.24,1.99-1.94,3.27-4.04,3.5-6.91,.82-10.01,6.09-17.4,14.02-23.12,1.35-.97,2.73-1.91,4.15-2.77,4.14-2.53,6.84-5.82,8.14-10.79,.93-3.55,3.32-6.88,5.64-9.85,3.61-4.61,5.64-9.49,6.15-15.43,.37-4.36,2.2-8.68,3.83-12.84,1.9-4.89,2.98-9.64,2.32-15.03-.57-4.71,.03-9.62,.6-14.39,.42-3.55,.24-6.83-.71-10.3-1.67-6.08-2.97-12.27-4.17-18.47-.77-4-2.04-7.68-4.46-10.98-4.27-5.82-7.44-12.16-9.74-19.03-.86-2.57-2.6-5.08-4.56-6.99-4.8-4.7-9.06-9.78-12.19-15.7-2.1-3.98-5.36-6.65-8.83-9.3-4.74-3.63-9.42-7.36-13.78-11.43-2.98-2.78-6.45-4.08-10.18-4.91-9.79-2.2-17.66-7.51-24.48-14.64-3.56-3.73-3.85-5.52-.53-9.44,1.7-2.01,1.72-3.59,.82-5.84-1.11-2.77-1.99-5.66-2.59-8.58-.73-3.56,.77-5.56,4.3-6.7,3.9-1.26,7.66-.38,11.2,1.05,4.15,1.67,8.1,3.84,12.12,5.84,3.31,1.64,3.4,1.73,5.08-1.47,.83-1.57,1.92-2.11,3.56-2.13,4.17-.06,7.98,1.29,11.18,3.73,3.95,3.01,7.59,6.46,11.23,9.86,1.48,1.38,2.46,2.14,4.62,.83,1.24-.76,3.56-.47,5.1,.12,4.65,1.77,7.99,5.32,10.96,9.18,1.42,1.84,2.65,3.84,3.96,5.77,1.53,2.26,2.58,5.35,6.38,3.69,2.41,1.67,5.23,2.97,7.15,5.09,4.18,4.61,6.85,10.21,8.9,16.07,.82,2.36,1.32,4.38,4.86,4.34,1.66-.02,3.72,2.58,4.96,4.43,3.38,5.04,5.27,10.74,6.18,16.73,.47,3.07,1.46,5.38,4.33,7.31,4.59,3.07,5.7,8.38,6.61,13.52,.2,1.14,.18,2.32,.28,3.48,.51,5.76,1.16,11.26,4.62,16.45,2.12,3.19,2,7.87,2.88,11.89-.28,.05-.56,.1-.84,.16Zm-62.59,106.36c-2.52,3.61-5.02,7.24-7.56,10.84-2.49,3.54-5.08,7.01-7.5,10.6-1.29,1.91-.75,2.97,1.48,2.44,2.82-.66,5.94-1.57,8.05-3.38,8.06-6.92,13.11-15.84,15.44-26.21,1.15-5.1-.69-6.82-5.87-5.84-.65,.12-1.28,.34-1.91,.55-8.21,2.65-14.68,7.74-19.84,14.51-2.8,3.67-4.24,7.92-3.61,12.65,.1,.79,.45,1.54,.68,2.31,.83-.39,1.89-.57,2.44-1.19,2.74-3.13,5.32-6.4,8.02-9.56,2.76-3.24,5.62-6.39,10.19-7.7Zm-4.74-175.02c.29-.33,.59-.67,.88-1,2.69,2.12,5.32,4.35,8.1,6.35,2.95,2.12,5.96,4.21,9.13,5.98,2.11,1.18,2.67,.63,2.23-1.7-.77-4.06-2.57-7.75-5.77-10.23-4.83-3.76-9.96-7.17-15.19-10.36-2.21-1.35-4.93-2.06-7.51-2.54-5.09-.94-6.17,.3-4.81,5.24,1.92,6.99,5.2,13.32,10.07,18.71,1.35,1.5,3.21,2.53,4.84,3.78,.7-2.68,1.55-5.34,2.01-8.07,.13-.74-.89-1.71-1.44-2.53-.82-1.23-1.69-2.42-2.54-3.62Zm36.26,92.22c.31,.04,.62,.07,.92,.11,.45,2.1,.75,4.24,1.37,6.28,1.35,4.45,2.84,8.86,4.35,13.26,.18,.52,.83,.89,1.26,1.33,.42-.47,1.11-.9,1.2-1.43,.63-3.57,1.79-7.22,1.55-10.75-.51-7.68-2.51-15.11-6.35-21.88-1.22-2.15-2.75-4.19-4.41-6.02-1.76-1.93-2.78-1.74-4.35,.46-.67,.94-1.18,2.01-1.69,3.05-2.93,6.01-3.1,12.54-3.38,19.01-.08,1.82,.9,3.69,1.39,5.54,2.08-1,4.21-1.9,6.19-3.07,.55-.32,.68-1.43,.92-2.2,.38-1.22,.7-2.46,1.04-3.7Zm-60.23-116.47c.11-.25,.22-.5,.33-.75,1.57,.67,3.11,1.39,4.7,1.99,4.95,1.88,9.9,3.77,14.89,5.53,.81,.29,1.84-.06,2.77-.11-.3-.92-.37-2.02-.93-2.72-1.65-2.06-3.27-4.26-5.31-5.87-8.49-6.7-18.38-8.91-28.99-8.4-2.87,.14-3.11,.54-2,3.41,2.12,5.51,5.41,10.3,9.63,14.38,2.25,2.18,4.81,4.05,7.36,5.89,1.78,1.28,2.68,.52,2.76-1.59,.16-4.23,.36-8.43-4.38-10.64-.37-.17-.56-.74-.84-1.12Zm61.43,67.97c.17-.52,.39-.85,.34-1.13-3.06-14.59-12.84-23.17-25.83-28.87-.45-.2-.97-.25-1.46-.32-1.75-.25-2.94,.24-3.01,2.27-.37,9.8,3.27,18.19,8.98,25.87,.82,1.1,1.64,1,2.25-.23,1.79-3.58,3.98-7.13,.68-11.07-.43-.51-.45-1.36-.65-2.06,6.17,5.46,11.58,11.44,18.71,15.53Zm-6.12,15.61c.23-.05,.46-.1,.7-.16,3.8,5.41,7.58,10.83,11.41,16.22,.72,1.02,1.64,1.9,2.47,2.85,.39-1.39,.82-2.77,1.15-4.18,.11-.47,.04-1-.06-1.49-2.54-12.2-8.65-22.2-18.67-29.65-3.14-2.34-4.86-1.69-5.52,2.14-.53,3.08-.76,6.35-.32,9.42,.75,5.23,2.11,10.37,3.33,15.52,.1,.43,1.52,1.03,1.63,.91,1.55-1.71,3.3-3.38,4.32-5.4,.55-1.1-.19-2.85-.33-4.31-.06-.63-.07-1.26-.1-1.88Zm-.02,61.99c.38-.02,.75-.03,1.13-.05,0,1.96-.11,3.93,.02,5.88,.33,4.96,.71,9.93,1.22,14.87,.09,.84,.9,1.6,1.38,2.39,.79-.54,1.91-.9,2.31-1.65,1.07-2.03,2.13-4.14,2.66-6.35,1.31-5.42,.8-10.96-.23-16.31-.87-4.51-2.55-8.92-4.32-13.19-1.22-2.94-2.2-3.02-4.37-.87-6.58,6.5-9.08,14.89-10.53,23.69-.29,1.73,.65,2.42,2.43,1.84,3.76-1.24,7.18-2.71,7.3-7.53,.02-.92,.65-1.82,1-2.72Zm-63.12-161.04c.68-.16,2.48-.57,4.28-.98-1.41-1.35-2.78-2.73-4.24-4.02-.48-.43-1.14-.69-1.77-.9-10.73-3.68-21.23-3.06-31.51,1.68-2.1,.97-2.74,2.1-1.09,4.17,5.32,6.65,12.29,10.54,20.4,12.64,.47,.12,1.08,.22,1.46,.02,.51-.26,1.14-.77,1.23-1.26,.57-3.15-2.07-7.48-5.15-8.61-.78-.29-1.64-.41-2.35-.82-.48-.28-.76-.9-1.14-1.38,.44-.18,.88-.51,1.32-.51,5.78-.03,11.57-.02,18.55-.02Zm52.34,190.83c.21,.06,.43,.13,.64,.19-.08,.91-.14,1.83-.24,2.74-.45,3.95-1.02,7.89-1.31,11.85-.07,.95,.7,2.75,1.22,2.8,1.34,.13,2.83-.32,4.1-.89,.61-.27,.99-1.3,1.26-2.06,2.86-8.14,3.87-16.48,2.33-25.01-.89-4.9-2.94-5.61-7.12-2.75-.95,.65-1.94,1.37-2.63,2.27-2.92,3.81-5.89,7.6-8.49,11.62-1.06,1.65-1.22,3.89-1.79,5.86,2.28-.14,4.61-.03,6.82-.52,1.1-.24,2.1-1.46,2.91-2.43,.92-1.11,1.56-2.44,2.32-3.68Zm3.72,22.54c-5.53,.59-7.71,2.39-8.35,7.67-.09,.77,.44,2.09,1.05,2.38,3.08,1.47,1.05,2.21-.4,2.57-4.48,1.12-6.61,4.8-9.12,8.08-.36,.47-.66,1.61-.47,1.76,.58,.43,1.45,.8,2.13,.7,7.46-1.11,14.74-2.95,20.98-7.38,2.66-1.89,5.04-4.35,7.04-6.94,2.34-3.02,2.01-4.21-1.49-5.56-3.67-1.41-7.57-2.22-11.36-3.29Zm-64.47,58.29c4.07,.18,5.73-1.6,6.55-4.16,2.27-7.07,7.03-12.36,12.15-17.42,1.77-1.75,3.46-3.6,5.14-5.45,1.1-1.22,1.45-2.35,.15-3.9-2.49-2.99-3.16-3.52-5.97-.9-6.92,6.46-13.58,13.2-20.16,20.01-1.44,1.49-2.06,3.76-3.07,5.67-.97,1.84-.34,3.28,1.28,4.24,1.53,.91,3.2,1.57,3.92,1.92Zm79.47-73.65c.13,.26,.27,.52,.4,.78-1.8,1.31-3.63,2.59-5.4,3.94-2.91,2.23-4.3,5.1-3.28,6.58,1,1.44,5.64,2.04,8.01,1.04,.15-.06,.29-.16,.43-.26,6.09-4.48,11.41-9.56,13.97-17,.82-2.38-.11-3.26-2.18-3.99-4.15-1.45-8.22-.43-12.27,.24-4.43,.74-5.14,1.74-5.44,6.21-.26,3.91-.1,4.03,3.56,2.96,.72-.21,1.46-.34,2.2-.51Zm-2.29-138.93c.52,3.23,.91,6.49,1.61,9.68,.41,1.89,1.68,2.36,3.3,1,2.54-2.13,4.34-4.79,4.1-8.14-.5-7.05-2.66-13.62-6.49-19.61-1.1-1.72-2.19-1.55-3.58-.25-4.07,3.8-5.86,8.78-7.22,13.94-.53,2,2.76,7.06,5.01,7.34,2.4,.3,1.53-2.74,2.79-3.8,.12-.1,.31-.1,.47-.15Zm-10.94-10.36c1.65-3.6,3.92-6.38,4.07-9.26,.48-9.18-3.94-16.56-10.12-23-.22-.23-.56-.35-.84-.54-1.43-.97-2.54-.63-3.18,.91-1.01,2.46-1.92,4.96-2.89,7.43-2.22,5.68,1.39,9.97,6.47,12.07,1.42,.59,2.15,1.1,2.62,2.28,1.21,3.04,2.34,6.11,3.86,10.09Zm23.89,121.39c.22,.23,.45,.46,.67,.69-.95,1.11-2.05,2.12-2.83,3.34-1.33,2.08-2.57,4.25-3.65,6.47-.87,1.78-.07,2.82,1.87,3.1,3.25,.46,5.91-.57,7.99-3.08,3.33-4.02,5.82-8.47,7.29-13.52,2.07-7.07,.71-8.75-6.69-7.99-6.76,.7-9.79,4.4-9.19,11.03,.18,2.05,.92,2.24,2.46,1.23,.68-.45,1.39-.85,2.08-1.27Zm-2.29-86.08c.26,.04,.52,.08,.77,.11-.17,1.87-.36,3.73-.5,5.6-.17,2.31-.37,4.63-.38,6.95,0,.39,1.19,1.22,1.43,1.09,3.26-1.74,6.63-3.6,7.08-7.75,.71-6.68,.23-13.28-2.23-19.64-.89-2.31-2.16-2.52-4.23-1.42-6.29,3.35-9.86,14.97-6.34,21.21,.16,.29,1.58,.33,1.68,.13,1-2.05,1.84-4.17,2.72-6.28Zm17.39,50.07c-.03-5.41-1.26-6.28-5.92-4.5-1.08,.41-2.11,.97-3.15,1.49-4.58,2.31-5.9,4.05-4.2,8.53,1.4,3.7,.51,6.74-.41,10.04-.4,1.44-.84,2.87-1.09,4.34-.07,.4,.62,1.33,.71,1.3,2.89-.98,6.83,.13,8.53-3.14,3.01-5.76,5.17-11.88,5.52-18.07Zm-2.09-26.12c-.38-3.01-.61-5.66-1.07-8.26-.35-2.02-1.5-2.62-3.62-1.93-6.71,2.17-8.77,6.31-6.16,12.76,.12,.31,.15,.72,.37,.91,2.24,1.98,1.16,4.12,.42,6.3-.85,2.5-1.67,5.03-2.26,7.61-.12,.54,.85,1.91,1.28,1.89,3.81-.13,8.15-3.55,9.05-7.42,.93-4.02,1.39-8.14,1.99-11.86Zm-55.31-81.51c.87-2.76,1.72-4.74,2.09-6.81,.37-2.09,.96-4.54,.23-6.34-2.63-6.5-6.27-12.48-12.23-16.53-3.57-2.43-4.77-1.83-5.87,2.29-1.41,5.29,.63,9.77,5.38,11.82,4.45-2.14,3.65,2.34,4.66,4.01,2.12,3.49,3.68,7.32,5.74,11.57Zm-20.93-26.5c-.55-1.93-.59-3.82-1.52-5.01-4.62-5.94-9.94-11.12-17.4-13.37-2.76-.83-4.4,.78-3.96,3.66,.41,2.7,2.48,3.76,4.68,4.64,4.8,1.93,8.42,5.14,10.85,9.72,.46,.87,.96,1.89,1.73,2.38,1.18,.74,2.79,1.7,3.87,1.39,.87-.25,1.22-2.27,1.75-3.4Zm-29.94-13.6c-3.71-3.49-7.84-5.59-12.21-6.94-3.11-.96-6.51-1.1-9.79-1.37-.54-.05-1.79,1.24-1.69,1.65,.67,2.57,1.54,5.09,2.55,7.54,.21,.52,1.3,1.03,1.94,.97,6.23-.53,12.45-1.18,19.2-1.85Z"/>
  <path d="M186.15,413.93c0-16.83,0-33.66,0-50.49,0-1.5-.02-3,.1-4.49,.23-2.82,1.61-4.7,4.57-5.06,1.81-.22,3.63-.49,5.45-.49,28.14-.03,56.29-.02,84.43-.02,.33,0,.67,0,1,0,7.47,.14,9.26,1.79,9.29,9.12,.07,15.83-.04,31.66,.06,47.49,.03,4.49-1.46,7.62-5.79,9.44-3.98,1.68-7.72,3.93-11.66,5.72-5.12,2.33-7.7,.74-7.75-4.84-.1-11-.03-22-.04-32.99,0-1.17-.03-2.33-.03-3.5,0-2.12-1.29-2.99-3.18-3.04-2.15-.06-3.5,.89-3.48,3.24,0,1.17-.03,2.33-.03,3.5,0,12.66-.1,25.33,.05,37.99,.06,4.63-1.52,7.85-5.56,10.31-5.83,3.54-11.38,7.55-17.05,11.35-.41,.28-.83,.56-1.26,.81-2.15,1.24-4.32,2.94-6.92,1.51-2.6-1.42-2.47-4.1-2.47-6.63,0-18.33,0-36.66,0-54.99,0-1,.05-2,0-3-.15-3.01-.8-3.61-3.42-3.65-2.73-.04-3.43,1.5-3.3,3.84,.02,.33,0,.67,0,1-.37,21.15-.86,42.3-1.02,63.45-.04,5.2-1.53,8.79-6.17,11.49-5.9,3.42-11.37,7.55-17.14,11.21-5.32,3.37-8.63,1.55-8.65-4.79-.07-17.83-.03-35.66-.03-53.49Zm49.01,22.85c1.63-.89,2.82-1.42,3.87-2.14,3.54-2.45,8.28-4.27,10.17-7.67,1.78-3.21,.61-8.11,.62-12.26,.03-10.5,.01-20.99-.02-31.49-.01-3.51,.77-6.68,3.85-8.74,4.6-3.09,9.56-3.73,14.69-1.48,4.93,2.16,6.32,6.52,6.67,11.41,.08,1.16,.03,2.33,.03,3.5,0,7,0,13.99,0,20.99,0,1.16-.1,2.37,.17,3.48,.13,.52,1.07,1.27,1.56,1.21,2.76-.3,4.94-2.54,4.95-5.25,.06-14.16,0-28.32,.06-42.48,0-2.33-.82-3.43-3.2-3.24-.83,.07-1.66,0-2.5,0-24.97,0-49.95,0-74.92,0-1.17,0-2.33,.04-3.5,.03-1.66-.02-2.43,.83-2.43,2.45,0,1.17-.03,2.33-.03,3.5,0,28.99,0,57.97,0,86.96,0,.5-.06,1.01,.01,1.5,.16,1.08,.39,2.15,.6,3.22,1.02-.5,2.1-.91,3.06-1.51,1.97-1.24,3.77-2.81,5.84-3.84,3.47-1.72,4.32-4.32,4.34-8.08,.11-20.81,.51-41.61,.81-62.42,0-.5,0-1,.04-1.5,.39-5.48,3.66-9.43,8.86-10.73,5.89-1.46,12.18,.42,14.5,4.99,1.22,2.4,1.73,5.4,1.76,8.14,.18,15.32,.11,30.65,.12,45.98,0,1.64,0,3.29,0,5.48Z"/>
  <path d="M687.57,216.29c-2.43,4.07-4.89,8.13-7.28,12.22-11.83,20.28-23.64,40.58-35.48,60.85-2.78,4.76-7.44,4.58-10.34-.35-13.33-22.69-26.65-45.38-39.99-68.06-.75-1.27-1.58-2.49-3.16-3.66-.07,1.71-.21,3.41-.21,5.12-.01,26,0,51.99-.01,77.99,0,1.33-.04,2.67-.02,4,.03,2.03-.88,3.12-2.98,3.08-.17,0-.33,.01-.5,.01-10.5,.07-8.91,.6-8.92-8.16-.05-33.83-.02-67.65-.02-101.48,0-1.33-.05-2.67,.02-4,.18-3.38,.42-3.6,3.81-3.78,1-.05,2.01,.1,2.99-.03,3.1-.42,4.88,1.09,6.35,3.67,5.03,8.82,10.22,17.56,15.34,26.33,9.66,16.54,19.32,33.08,28.98,49.61,.34,.58,.71,1.13,1.05,1.7,2.79,4.58,2.81,4.59,5.4,.14,5.95-10.22,11.88-20.45,17.81-30.68,8.76-15.13,17.51-30.27,26.26-45.41,3.13-5.41,5.83-6.67,11.83-5.18,.87,.21,1.85,1.3,2.13,2.19,.39,1.22,.18,2.64,.18,3.97,0,34.99,0,69.99,0,104.98,0,.83-.05,1.67,0,2.5,.14,2.47-.86,3.65-3.48,3.65-10.59,0-8.92,.53-8.94-8.16-.06-26.16-.02-52.32-.02-78.49v-4.32c-.27-.09-.55-.18-.82-.26Z"/>
  <path d="M323.78,360.86c-.66-7.86-6.07-10.73-12.01-7.33-5.91,3.38-7.28,11.16-3,16.92,5.53,7.44,17.65,7.72,23.61,.59,4.94-5.92,6.2-12.53,3.1-19.56-3.28-7.43-9.1-11.71-17.39-12.2-1.49-.09-3-.04-4.49-.04-50.11,0-100.22,0-150.32,0-2.16,0-4.36-.12-6.48,.19-8.2,1.22-13.46,6.14-16.35,13.68-2.71,7.09-.17,13.13,4.5,18.37,5.23,5.88,14.76,6.32,20.83,1.28,3.89-3.23,5.54-9.34,3.81-14.13-1.71-4.74-7.58-7.6-12.28-6-2.96,1.01-4.11,3.42-3.89,9.03,.91-3.52,2.34-5.75,5.35-6.31,3.45-.63,6.88,2.06,7.48,5.77,1.14,6.97-5.24,12.76-12.21,10.93-5-1.31-8.86-4.24-9.86-9.52-1.11-5.88,.14-11.32,5.03-15.34,8.65-7.12,21.13-4.65,27.13,5.22,7.21,11.86,1.19,26.78-12.32,31.69-15.11,5.49-32.49-6.74-33.11-22.86-.66-17.3,10.45-29.74,27.97-31.19,4.63-.38,9.29-.62,13.94-.62,44.61-.05,89.23-.05,133.84,0,4.65,0,9.33,.22,13.93,.81,16.21,2.08,29.67,18.84,24.49,36.14-4.54,15.16-22.85,26.26-39.45,13.69-7.33-5.55-9.25-13.34-7.53-21.88,1.54-7.62,6.46-12.61,14.15-14.57,10.6-2.7,21.46,5.65,20.89,16.04-.31,5.72-5,11.3-10.53,12.54-5.45,1.22-11.39-2.67-12.45-8.16-.61-3.16,1.04-6.46,3.94-7.9,3.1-1.54,5.94-.78,8.29,2.25,.39,.51,.64,1.13,1.39,2.46Z"/>
  <path d="M908.36,232.71c0-13.77-.02-27.91,0-42.06,.02-8.13-.88-7.59,7.48-7.57,4.88,0,4.94,.07,4.94,5.1,.02,38.14,.02,76.27,0,114.41,0,4.85-.08,4.85-5.15,4.92-.17,0-.33,0-.5,0-6.56,.04-6.49,.04-6.61-6.56-.04-2.54-.47-5.07-.72-7.6-1.62,1.61-3.2,3.27-4.88,4.82-21.48,19.85-63.85,10.68-70.59-24.56-2.63-13.75-.94-26.82,7.68-38.46,7.75-10.47,18.38-15.68,31.04-16.79,11.51-1,22.15,1.58,31.15,9.34,1.99,1.72,4.08,3.33,6.15,5.01Zm-32.23-3.23c-14.1,.02-24.48,7.03-29.58,20.23-2.5,6.46-3.15,13.14-1.87,20.05,2.39,12.89,9.26,21.85,22.02,25.76,17.41,5.32,35.17-3.76,40.01-20.74,1.25-4.39,1.65-9.17,1.61-13.76-.18-18.33-13.84-31.56-32.18-31.53Z"/>
  <path d="M239.06,290.21c29.98,0,59.95,0,89.93,0,1.33,0,2.67-.06,4,.03,3.47,.26,4.82,1.53,5.14,4.85,.55,5.67,0,10.81-5.05,14.77-3.38,2.65-6.19,6.05-9.19,9.17-2.81,2.93-6.12,4.26-10.25,4.25-50.29-.07-100.59-.06-150.88,0-3.75,0-6.71-1.01-9.31-3.82-3.72-4.04-7.78-7.77-11.64-11.68-3.64-3.69-4.9-10.32-2.52-14.8,.66-1.24,2.42-2.14,3.87-2.62,1.36-.45,2.97-.15,4.46-.15,30.48,0,60.95,0,91.43,0Zm-.64,9.12c-28.13,0-56.27,0-84.4,0-1.5,0-3-.03-4.49,.06-1.99,.11-2.37,1.12-1.07,2.53,2.03,2.2,4.46,4.07,6.27,6.43,3.72,4.85,8.46,5.98,14.4,5.96,44.61-.21,89.23-.36,133.85,.09,9.36,.09,16.96-1.47,22.52-9.35,1.09-1.54,3.9-2.5,2.79-4.67-.48-.95-3.23-1-4.95-1.01-28.3-.06-56.6-.04-84.9-.04Z"/>
  <path d="M578.74,415.31c0-17.32-.01-34.65,0-51.97,0-5.67,.22-5.9,5.91-5.91,11.49-.03,22.98-.27,34.46,.07,10.8,.31,21.65,.94,31.39,6.6,11.51,6.7,18.06,16.49,18.36,29.99,.1,4.46,.19,9.1-.83,13.39-3.84,16.15-15.37,24.26-30.69,27.83-3.69,.86-7.57,1.1-11.37,1.16-9.82,.17-19.64,.05-29.46,.1-4.64,.02-4.69,.08-4.71,4.8-.04,8.83,.02,17.66-.03,26.48-.03,5.06-.36,5.39-5.4,5.42-8.52,.06-7.62,.31-7.63-7.49-.02-16.82,0-33.65,0-50.47Zm13.05-18.47c0,8.15-.05,16.3,.02,24.45,.03,3.74,.26,3.98,4.01,4,9.64,.06,19.28,.09,28.92-.05,3.13-.05,6.29-.44,9.37-1.03,23.6-4.52,26.79-28.7,17.86-43.06-5.07-8.14-13.36-10.93-22.12-11.6-11.24-.87-22.56-.75-33.85-.94-4.04-.06-4.17,.16-4.2,4.27-.06,7.98-.02,15.97-.01,23.95Z"/>
  <path d="M993.71,267.42c-10.32,0-20.64-.01-30.96,0-5.25,.01-5.94,.88-4.76,5.74,2.81,11.61,13.19,20.95,25.02,23.07,9.38,1.68,18.23,.66,26.51-4.06,2.28-1.3,4.23-3.18,6.35-4.78,.65-.49,1.83-1.42,1.95-1.3,2.13,2.03,4.35,4.03,6.03,6.41,.47,.67-.34,2.86-1.2,3.75-3.74,3.88-8.21,6.82-13.28,8.66-15.98,5.8-31.37,4.74-45.87-4.48-11.85-7.53-17.55-18.86-18.98-32.43-1.02-9.62,.73-18.88,5.28-27.56,8.77-16.74,26.33-24.28,43.49-21.9,19.62,2.72,33.09,15.89,36.3,34.68,.56,3.26,.87,6.6,.92,9.91,.07,3.86-.38,4.23-4.35,4.25-10.82,.06-21.64,.02-32.46,.02Zm-5.57-10.07c8.83,0,17.65,.05,26.48-.02,3.63-.03,3.69-.26,3.01-3.74-1.17-6.06-3.82-11.35-8.19-15.71-6.84-6.83-15.28-8.92-24.69-8.45-12.66,.62-24.44,10.59-26.88,23.02-.8,4.09-.17,4.87,4.29,4.9,8.66,.05,17.32,.01,25.98,.01Z"/>
  <path d="M961.66,400.29c5.85-7.26,12.52-11.34,20.45-13.35,10.18-2.59,20.15-2.02,29.69,2.49,8.32,3.94,13.66,10.58,15.77,19.51,1.06,4.5,1.78,9.18,1.85,13.79,.23,15.16,.11,30.32,.08,45.48,0,4.91-.15,5-5.05,5.08q-7.14,.12-7.15-6.97c0-13.16,.08-26.32-.05-39.48-.04-3.97-.29-8.02-1.09-11.9-1.74-8.48-6.72-14.33-15.18-16.92-7.81-2.39-15.52-1.74-22.95,1.28-8.76,3.56-13.46,10.65-15.27,19.64-.81,4.04-1.02,8.26-1.07,12.4-.13,12.16-.03,24.32-.05,36.48,0,5.43-.04,5.43-5.65,5.47-.17,0-.33,0-.5,0-6.03,0-6.05,0-6.05-6.08,0-36.65,0-73.3,0-109.96,0-1,.04-2,.02-3-.02-2.01,.87-2.92,2.96-3.16,8.53-.97,9.22-.43,9.22,7.87,0,11.83,0,23.66,0,35.49v5.84Z"/>
  <path d="M1206.93,105.56c-10.32,0-20.65-.02-30.97,.01-4.59,.02-5.25,.84-4.16,5.32,2.66,10.94,9.59,18.32,20.02,21.83,10.49,3.54,21.02,2.84,30.85-2.73,2.28-1.29,4.31-3.11,6.27-4.88,1.46-1.32,2.38-1.2,3.71,.2,5.61,5.9,5.59,7.16-1.06,12.18-7.58,5.73-16.3,7.99-25.69,8.33-11.19,.39-21.41-2.3-30.52-8.94-8.01-5.84-13.08-13.73-15.38-23.25-3.85-15.9-1.28-30.66,10.03-42.82,12.17-13.08,27.55-16.5,44.33-11.24,16.3,5.11,25.27,17.09,28.06,33.79,.44,2.62,.78,5.28,.81,7.93,.05,3.89-.33,4.22-4.36,4.24-10.66,.05-21.31,.02-31.97,.02Zm-5.69-9.38c1,0,2,0,3,0,7.83,0,15.65,.05,23.48-.03,3.34-.03,3.45-.27,2.82-3.43-1.09-5.48-3.2-10.46-6.99-14.69-6.76-7.55-15.35-10.1-25.18-9.55-11.99,.66-23.23,8.63-26.65,23.13-.9,3.8-.16,4.53,4.05,4.55,8.49,.04,16.98,.01,25.47,.02Z"/>
  <path d="M772.12,218.21c26.02,.06,44.71,19.07,44.63,45.38-.08,25.88-19.42,45.21-45.38,44.78-25.73-.43-44.71-18.7-44.75-45.52-.04-25.83,19.3-44.7,45.5-44.64Zm31.52,44.66c.86-15.95-10.26-30.68-25.68-32.98-18.23-2.72-33.28,6.83-37.16,23.8-.91,4-1.16,8.26-.96,12.37,.56,11.78,5.55,21.18,16.17,26.91,11.19,6.04,22.57,5.63,33.26-.95,10.6-6.52,14.62-16.82,14.37-29.14Z"/>
  <path d="M1388.46,101.72c.88,24.33-17.39,44.33-44.4,44.2-25.1-.12-43.92-18.26-43.79-44.59,.12-25.5,18.38-43.95,44.46-43.9,26.43,.05,44.71,19.78,43.74,44.28Zm-75.32,.73c.1,1.64,.08,4.15,.46,6.61,.3,1.95,1.04,3.84,1.69,5.73,3.65,10.62,14.7,21.4,32.72,19.75,14.42-1.33,25.1-11.92,27.4-25.48,.9-5.31,.89-10.55-.25-15.83-5.94-27.48-35.57-29.44-49.3-18.99-9.06,6.89-12.77,16.23-12.71,28.21Z"/>
  <path d="M1131.57,233.95c5.76-7.44,12.3-11.99,20.49-14.12,9.27-2.41,18.5-2.41,27.5,.83,13,4.67,19.31,14.7,20.86,27.96,.65,5.6,.77,11.28,.82,16.93,.12,12.32,.06,24.65,.02,36.98-.02,4.72-.23,4.97-4.64,4.97-9.35,0-8.36,.85-8.38-8.21-.04-14.66,.03-29.32-.06-43.97-.04-6.11-1.51-11.88-5.28-16.85-4.85-6.4-11.84-8.6-19.33-8.77-19.02-.42-30.87,11.12-31.11,28.82-.19,14.16-.06,28.32-.08,42.47,0,1.33-.02,2.66-.09,3.99-.08,1.58-.94,2.46-2.53,2.47-2.66,.03-5.32,.02-7.99-.02-1.66-.03-2.33-1.07-2.39-2.6-.05-1.16-.06-2.33-.06-3.5,0-25.32,0-50.64,0-75.95,0-1.33-.21-2.75,.19-3.96,.29-.88,1.38-1.53,2.17-2.21,.2-.17,.64-.08,.98-.09,10.7-.07,8.73-.63,8.91,8.12,.04,1.83,0,3.66,0,6.72Z"/>
  <path d="M1096.43,473.57c-24.56,1.12-44.51-19.1-44.36-43.77,.15-24.88,17.72-44.43,44.47-44.31,25.06,.12,43.68,17.84,43.82,43.95,.15,28.66-22.19,45.03-43.94,44.12Zm-.16-77.15c-14.92,0-26.17,8.38-30.28,22.71-6.71,23.35,9.13,47.97,36.88,43.05,10.88-1.93,18.19-8.55,22.43-18.54,2.51-5.92,2.67-12.18,2.17-18.58-1.15-14.81-12.28-28.83-31.2-28.64Z"/>
  <path d="M1198.9,429.49c-.12-25.54,18.07-44.12,44.17-43.94,25.75,.17,44.29,17.58,43.99,44.7-.32,28.08-21.42,43.95-45.71,43.48-19.95-.38-42.91-15.83-42.45-44.24Zm75.31,.42c0-1.66,.16-3.35-.02-4.99-1.34-12.19-6.95-21.72-18.65-26.15-12.14-4.59-24-3.53-33.95,5.74-10.49,9.77-12.2,22.2-8.95,35.38,2.81,11.38,10.29,19.04,21.76,21.81,11.66,2.82,22.45,.88,31.19-8.15,6.38-6.59,9.06-14.56,8.61-23.64Z"/>
  <path d="M1060.23,130.51c-5.89,7.84-12.48,12.47-20.77,14.26-9.29,2.01-18.57,1.73-27.37-2.15-11.17-4.93-16.99-14.01-18.69-25.87-.47-3.29-.81-6.62-.83-9.94-.09-14.49-.06-28.98-.03-43.47,.01-5,.15-5.15,4.97-5.14,8.39,.01,7.95-.9,7.95,7.67,0,14.32-.14,28.65,.13,42.96,.08,4.08,.97,8.25,2.16,12.18,1.34,4.41,4.43,7.74,8.44,10.13,10.64,6.33,27.6,3.94,35.97-5.14,4.85-5.26,7.05-11.66,7.13-18.7,.15-13.82,.1-27.64,.11-41.47,.01-8.37-.43-7.64,7.48-7.65,5.4,0,5.44,.04,5.44,5.68,.02,25.15,0,50.29,0,75.44,0,1.16,.11,2.38-.2,3.47-.24,.85-1.01,2.15-1.62,2.19-2.96,.21-5.96,.22-8.9-.08-.55-.06-1.27-1.81-1.32-2.81-.16-3.47-.06-6.96-.06-11.58Z"/>
  <path d="M637.84,72.44c5.88-7.42,12.55-11.48,20.5-13.51,10-2.56,19.78-2,29.23,2.21,9.78,4.36,15.03,12.36,17.12,22.51,.83,4.04,1.07,8.25,1.1,12.39,.13,14.65,.06,29.3,.04,43.95,0,5.26-.1,5.32-5.25,5.39q-7.08,.09-7.09-7.03c0-13.82,.15-27.64-.09-41.45-.07-4.27-.82-8.62-1.93-12.76-1.8-6.7-6.31-11.3-12.87-13.55-8.54-2.93-17.08-2.42-25.25,1.31-8.2,3.75-12.61,10.67-14.29,19.27-.79,4.05-.99,8.26-1.03,12.39-.13,12.15-.03,24.31-.05,36.46-.01,5.26-.06,5.28-5.26,5.35-.17,0-.33,0-.5,0q-6.56,.03-6.57-6.56c0-24.64,0-49.28,0-73.92,0-1.33-.11-2.68,.08-3.99,.61-4.29,4.05-2.52,6.33-2.63,5.06-.24,5.44,.07,5.71,2.76,.18,1.81,.06,3.66,.07,5.49,0,1.59,0,3.17,0,5.92Z"/>
  <path d="M760.43,145.51c-11.03,.5-21.44-2-31.17-7.21-4.79-2.57-4.85-2.97-2.36-7.55,2.88-5.29,2.82-5.18,8.31-2.32,11.27,5.87,23.16,8.07,35.74,5.57,3.64-.72,6.86-2.18,9.62-4.89,4.12-4.03,4.27-13.58-2.02-16.32-4.07-1.77-8.37-3.08-12.67-4.22-8.18-2.16-16.68-3.38-24.61-6.2-14.57-5.18-18.32-23.65-7.62-34.87,3.67-3.86,8.08-6.56,13.1-7.92,14.52-3.94,28.67-2.56,42.27,3.85,4.09,1.93,4.08,2.23,1.98,6.38-2.92,5.75-2.89,5.69-8.97,2.81-9.69-4.59-19.8-5.29-30.19-3.02-1.29,.28-2.57,.74-3.77,1.28-4.95,2.22-8.22,6.96-7.89,11.73,.36,5.26,3.56,8.74,8.25,10.26,5.67,1.85,11.59,2.91,17.4,4.31,4.84,1.17,9.78,2.06,14.51,3.57,8.13,2.58,14.2,7.46,15.37,16.52,1.33,10.32-2.48,18.28-11.67,23.39-5,2.78-10.45,4.31-16.14,4.82-2.47,.22-4.98,.04-7.47,.04Z"/>
  <path d="M718,473.43c-10.94,.71-20.32-1.88-29.34-6.11-1.5-.7-2.87-1.67-4.28-2.55-1.68-1.05-2.18-2.43-1.11-4.22,.43-.71,.86-1.43,1.27-2.15,2.72-4.74,2.68-4.66,7.39-2.17,11.55,6.1,23.75,8.49,36.67,5.76,2.4-.51,4.7-1.64,6.92-2.74,6.74-3.33,7.65-15.97-.6-19.14-5.23-2.01-10.79-3.2-16.24-4.59-5.63-1.43-11.4-2.41-16.95-4.08-3.12-.94-6.19-2.54-8.85-4.44-11.31-8.1-9.8-26.53,1.02-34.1,2.96-2.07,6.27-3.94,9.7-4.97,14.46-4.34,28.6-2.92,42.25,3.39,4.5,2.08,4.49,2.41,2.19,6.65-.4,.73-.77,1.48-1.18,2.2-1.86,3.28-1.88,3.31-5.24,1.49-10.27-5.57-21.15-6.66-32.4-4.12-2.51,.57-4.93,1.96-7.16,3.34-5.87,3.65-6.27,14.57,.41,18.25,2.16,1.19,4.43,2.41,6.8,2.99,7.59,1.85,15.3,3.2,22.86,5.14,3.98,1.02,7.94,2.51,11.58,4.41,13.67,7.12,11.07,28.04,.93,34.79-6.14,4.09-12.75,6.4-20.02,6.94-2.48,.19-4.99,.03-6.62,.03Z"/>
  <path d="M894.5,473.56c-13.67,.34-24.88-4.44-33.9-14.48-5.29-5.89-8.42-12.83-9.72-20.48-2.3-13.53-.14-26.23,8.66-37.19,6.5-8.1,15.14-12.82,25.24-14.97,7.99-1.7,15.88-1.17,23.68,1.02,7.63,2.14,13.79,6.45,18.53,12.83,1.34,1.81,1.48,3.28-.65,4.51-.14,.08-.27,.19-.41,.28-1.82,1.16-3.67,3.24-5.46,3.19-1.57-.04-3.07-2.48-4.59-3.87-7.84-7.19-17.18-9.18-27.38-7.49-16.68,2.78-25.97,16.79-25.82,31.45,.04,3.8,.26,7.69,1.15,11.36,2.98,12.27,12.67,20.58,25.15,22.64,7.56,1.25,14.63,.24,21.18-3.47,2.83-1.6,5.28-4.01,7.58-6.38,1.61-1.66,2.7-1.75,4.64-.53,7.07,4.46,7.26,5.12,1.11,11.06-8.14,7.86-18.05,10.94-28.98,10.5Z"/>
  <path d="M1118.42,97.69c0,7.5-.08,14.99,.02,22.49,.16,11.57,7.64,17.18,18.99,14.33,1.44-.36,2.82-.97,4.25-1.39,1.47-.43,3.02-2.73,4.37-.96,1.54,2.04,2.53,4.66,3.1,7.18,.17,.76-1.7,2.3-2.92,2.99-4.44,2.5-9.35,3.53-14.38,3.56-7.88,.05-15.21-1.53-20.65-8.02-4.83-5.76-5.6-12.69-5.68-19.72-.16-14.49-.04-28.98-.05-43.47q0-6.04-5.96-6.06c-1,0-2,0-3,0-6.03-.02-7.69-2.33-6.15-8.35,.42-1.66,1.53-2.02,2.95-2.04,2.5-.03,4.99,0,7.49-.04,4.58-.07,4.6-.09,4.66-4.86,.04-3.33-.08-6.67,.05-9.99,.14-3.49,.66-4.03,4.19-4.06,9.97-.08,8.59-.68,8.69,8.41,.03,2.33,.09,4.67-.01,6.99-.11,2.53,.9,3.59,3.49,3.54,5.82-.11,11.65-.06,17.48-.02,4.98,.03,5.07,.16,5.11,5,.03,5.2-.1,5.37-5.2,5.4-5.33,.03-10.65-.02-15.98,.02-4.83,.03-4.86,.06-4.88,5.08-.03,7.99,0,15.99,0,23.98h.01Z"/>
  <path d="M818.51,97.56c0-8.33,.04-16.66-.02-24.99-.03-3.82-.12-3.84-3.97-3.94-2.16-.05-4.33,.02-6.49-.02-4.58-.09-4.61-.13-4.65-4.89-.05-5.44-.01-5.48,5.56-5.52,1.5-.01,3,0,4.5,0,5.02-.04,5.04-.05,5.08-4.87,.03-3.33-.06-6.67,.03-10,.1-3.72,.34-4.03,4.02-4.06,9.6-.09,8.19-.46,8.3,7.77,.03,2.67,.1,5.33-.01,8-.1,2.4,.96,3.21,3.27,3.18,6.16-.08,12.32-.07,18.48,.01,1.69,.02,4.21-.78,4.56,1.74,.35,2.54,0,5.24-.53,7.78-.11,.51-2.33,.81-3.59,.83-5.99,.09-11.99,0-17.98,.05-4.1,.03-4.17,.09-4.18,4.19-.03,15.33-.06,30.65,.04,45.98,.02,2.47,.41,5,1.06,7.39,1.79,6.62,9.63,10.48,17.46,8.59,2.24-.54,4.46-1.42,6.48-2.52,1.97-1.07,2.89-.57,3.94,1.22,3.54,6.02,3.25,7.16-3.09,9.93-6.83,3-13.99,3.14-21.04,1.47-10.75-2.54-16.9-10.9-17.16-22.84-.18-8.16-.03-16.33-.03-24.49h-.02Z"/>
  <path d="M929.28,98.02c0-8.49,.04-16.99-.02-25.48-.02-3.8-.11-3.83-3.95-3.91-2.83-.06-5.66-.08-8.49-.02-2.36,.05-3.33-1.1-3.27-3.34,.01-.5-.01-1-.02-1.5-.08-5.35,.11-5.45,5.55-5.61,3.26-.1,6.5-.5,9.75-.76,.15-3.13,.3-6.27,.45-9.4,.02-.33-.03-.67,0-1,.3-2.41,.62-4.81,.94-7.22,3.12-.14,6.26-.43,9.37-.31,.69,.03,1.64,1.46,1.89,2.4,.34,1.24,.08,2.64,.15,3.97,.22,3.93,.48,7.86,.73,11.79,3.95,.18,7.9,.42,11.86,.53,3.16,.09,6.32-.05,9.48,.04,3.69,.1,3.84,.31,3.98,4.07,.03,.83,.04,1.67,0,2.5-.17,3.46-.33,3.74-3.73,3.79-5.82,.1-11.65,.01-17.47,.04-4.77,.03-4.83,.05-4.84,4.58-.03,15.65-.08,31.31,.03,46.96,.08,11.48,8.44,17.53,19.57,14.29,1.74-.51,3.46-1.22,5.04-2.1,1.77-.97,2.86-.97,4.01,.99,3.51,5.98,2.95,7.71-3.56,10.28-6.55,2.58-13.31,2.94-20.08,1.51-10.07-2.12-16.97-10.55-17.25-21.13-.23-8.65-.05-17.32-.05-25.97h-.07Z"/>
  <path d="M591.84,87.36c0,17.5,.01,34.99,0,52.49,0,5.48-.05,5.5-5.62,5.53-8.33,.03-7.53,.33-7.54-7.6-.01-33.66,0-67.32,0-100.98,0-1.17-.04-2.33,.02-3.5,.16-3.4,.41-3.78,3.76-3.84,11.05-.21,9.34-.11,9.37,8.92,.06,16.33,.02,32.66,.02,48.99Z"/>
  <path d="M1054.11,262.91c0-12.82-.02-25.64,0-38.46,.01-5.29,.05-5.29,5.21-5.36,.67,0,1.33,0,2,0,4.83,.07,4.9,.17,5.02,5.13,.07,2.64,.22,5.29,.34,7.93,1.83-1.73,3.63-3.5,5.51-5.19,6.48-5.85,14.35-8.1,22.84-8.7,2.47-.18,3.83,.77,3.64,3.41-.01,.17,0,.33,0,.5q.38,7.65-7.23,8.42c-11.97,1.21-21.14,9.22-23.66,21-.76,3.55-1.12,7.24-1.16,10.87-.14,12.82-.05,25.64-.06,38.46,0,1.33,.14,2.69-.09,3.99-.74,4.17-4.14,2.43-6.42,2.48-2.13,.05-5.38,1.51-5.88-2.53-.16-1.31-.08-2.66-.08-3.99,0-12.65,0-25.31,0-37.96Z"/>
  <path d="M1175.5,412.3c0,18.15,0,36.3,0,54.46,0,1.33,.12,2.69-.09,3.99-.63,3.96-3.87,2.41-6.01,2.42-2.15,0-5.36,1.52-6.02-2.41-.19-1.14-.09-2.33-.09-3.49,0-36.64,0-73.28,0-109.91,0-1,.05-2,.02-3-.07-2.33,1.09-3.24,3.36-3.25,10.63-.05,8.76-.51,8.8,8.25,.09,17.65,.03,35.31,.03,52.96Z"/>
  <path d="M883.28,101.42c0-12.64-.02-25.28,0-37.92,.01-5.24,.05-5.24,5.27-5.3q7.1-.08,7.11,6.99c0,24.45,0,48.9,0,73.35,0,1.5,.2,3.06-.18,4.46-.24,.89-1.33,1.6-2.15,2.24-.32,.25-.97,.12-1.46,.13-10.17,.09-8.52,.26-8.57-8.02-.07-11.97-.02-23.95-.02-35.93Z"/>
  <path d="M889.71,23.08c5,.09,8.73,3.65,8.7,8.3-.02,4.5-4.54,8.91-9.04,8.85-4.8-.06-8.93-4.2-8.88-8.91,.05-4.87,3.93-8.34,9.22-8.25Z"/>
</svg>