<svg width="1000" height="327" viewBox="0 0 1000 327" fill="none" xmlns="http://www.w3.org/2000/svg">
<path d="M380.825 5.2022H389.015V82.6751H380.825V5.2022ZM442.25 24.0172C449.556 24.0172 455.421 26.12 459.738 30.3255C464.054 34.6421 466.157 40.8395 466.157 48.9187V82.6751H458.299V49.6935C458.299 43.6062 456.749 39.0687 453.761 35.859C450.773 32.6494 446.456 31.1004 440.812 31.1004C434.503 31.1004 429.634 32.9814 425.981 36.6339C422.329 40.3966 420.448 45.5989 420.448 52.1283V82.6751H412.589V24.4593H420.116V35.1951C422.218 31.6535 425.206 28.8867 429.081 26.894C432.843 25.0131 437.27 24.0172 442.25 24.0172V24.0172ZM503.122 83.2281C498.363 83.2281 493.936 82.5641 489.62 81.1253C485.303 79.7974 481.872 78.1375 479.438 76.0347L482.979 69.8365C485.414 71.7182 488.513 73.268 492.165 74.4849C495.818 75.7027 499.691 76.3667 503.675 76.3667C508.988 76.3667 512.972 75.4809 515.518 73.821C518.064 72.1611 519.28 69.8365 519.28 66.8487C519.28 64.7459 518.617 62.9751 517.178 61.7573C515.739 60.5395 513.968 59.6545 511.865 58.9905C509.762 58.4367 506.885 57.7727 503.343 57.2197C498.585 56.3339 494.821 55.4489 491.944 54.453C489.066 53.5672 486.632 52.0182 484.639 49.8045C482.536 47.5908 481.54 44.4921 481.54 40.6184C481.54 35.7481 483.532 31.7644 487.628 28.6649C491.722 25.5661 497.367 24.0172 504.561 24.0172C508.324 24.0172 512.087 24.4593 515.85 25.456C519.612 26.4519 522.712 27.7798 525.147 29.4397L521.716 35.7481C516.957 32.4283 511.201 30.7684 504.561 30.7684C499.58 30.7684 495.818 31.6535 493.272 33.4243C490.726 35.1951 489.398 37.5189 489.398 40.3966C489.398 42.6103 490.173 44.3811 491.612 45.709C493.05 47.0378 494.821 48.0337 496.925 48.5867C499.027 49.2507 502.015 49.9146 505.779 50.5794C510.426 51.4644 514.19 52.3502 516.957 53.2352C519.723 54.121 522.158 55.67 524.151 57.7728C526.143 59.8755 527.139 62.8642 527.139 66.6268C527.139 71.7182 525.036 75.7027 520.83 78.6905C516.514 81.6791 510.648 83.2281 503.122 83.2281V83.2281ZM572.295 79.1334C570.856 80.4613 568.974 81.4573 566.871 82.122C564.658 82.8961 562.334 83.2281 560.009 83.2281C554.587 83.2281 550.38 81.7892 547.392 78.8014C544.404 75.8128 542.965 71.7182 542.965 66.2948V31.1004H532.562V24.4593H542.965V11.7316H550.823V24.4593H568.531V31.1004H550.823V65.852C550.823 69.2835 551.709 71.9393 553.48 73.7101C555.14 75.5918 557.685 76.4768 560.895 76.4768C562.555 76.4768 564.105 76.2558 565.654 75.7028C567.092 75.1489 568.42 74.485 569.527 73.489L572.295 79.1334V79.1334ZM586.571 24.4593H594.43V82.6751H586.571V24.4593ZM590.556 11.7316C588.896 11.7316 587.567 11.1786 586.46 10.0717C585.354 8.96484 584.801 7.63695 584.801 6.08719C584.801 4.64836 585.354 3.32044 586.46 2.21358C587.567 1.10673 588.896 0.553711 590.556 0.553711C592.216 0.553711 593.544 1.10671 594.651 2.10265C595.757 3.20951 596.311 4.53824 596.311 5.97707C596.311 7.63696 595.757 8.96484 594.651 10.0717C593.544 11.1786 592.216 11.7316 590.556 11.7316ZM647.001 79.1334C645.562 80.4613 643.68 81.4573 641.578 82.122C639.364 82.8961 637.04 83.2281 634.715 83.2281C629.293 83.2281 625.086 81.7892 622.099 78.8014C619.11 75.8128 617.671 71.7182 617.671 66.2948V31.1004H607.268V24.4593H617.671V11.7316H625.529V24.4593H643.237V31.1004H625.529V65.852C625.529 69.2835 626.415 71.9393 628.186 73.7101C629.846 75.5918 632.392 76.4768 635.601 76.4768C637.261 76.4768 638.811 76.2558 640.36 75.7028C641.799 75.1489 643.127 74.485 644.233 73.489L647.001 79.1334V79.1334ZM713.738 24.4593V82.6751H706.212V72.0502C704.109 75.5918 701.342 78.3586 697.69 80.2403C694.038 82.2322 689.943 83.2281 685.294 83.2281C677.658 83.2281 671.681 81.1253 667.365 76.8096C662.938 72.6032 660.725 66.4058 660.725 58.2156V24.4593H668.582V57.4408C668.582 63.5281 670.132 68.1766 673.12 71.3862C676.108 74.5959 680.425 76.1449 686.069 76.1449C692.156 76.1449 697.026 74.2639 700.567 70.5004C704.109 66.8487 705.88 61.6464 705.88 55.006V24.4593H713.738ZM766.42 79.1334C764.982 80.4613 763.1 81.4573 760.997 82.122C758.783 82.8961 756.459 83.2281 754.135 83.2281C748.712 83.2281 744.506 81.7892 741.518 78.8014C738.529 75.8128 737.091 71.7182 737.091 66.2948V31.1004H726.688V24.4593H737.091V11.7316H744.949V24.4593H762.657V31.1004H744.949V65.852C744.949 69.2835 745.835 71.9393 747.605 73.7101C749.265 75.5918 751.811 76.4768 755.021 76.4768C756.68 76.4768 758.23 76.2558 759.779 75.7028C761.218 75.1489 762.546 74.485 763.653 73.489L766.42 79.1334V79.1334Z" fill="white"/>
<path d="M829.289 56.0021H780.591C781.034 62.0894 783.358 66.9589 787.564 70.6115C791.77 74.3742 797.082 76.2559 803.501 76.2559C807.153 76.2559 810.474 75.5919 813.462 74.264C816.45 73.0462 819.107 71.1645 821.319 68.6196L825.747 73.7102C823.201 76.8097 819.992 79.1336 816.118 80.7935C812.244 82.4542 807.928 83.2282 803.279 83.2282C797.303 83.2282 791.991 81.9003 787.453 79.3546C782.804 76.8097 779.153 73.3782 776.607 68.8407C774.061 64.3031 772.733 59.2117 772.733 53.5673C772.733 47.9229 773.95 42.8315 776.496 38.294C778.931 33.7564 782.362 30.3257 786.678 27.78C790.995 25.2343 795.754 24.0173 801.177 24.0173C806.6 24.0173 811.359 25.2343 815.675 27.78C819.992 30.3257 823.312 33.7564 825.747 38.1838C828.182 42.7214 829.399 47.812 829.399 53.5673L829.289 56.0021V56.0021ZM801.177 30.7686C795.532 30.7686 790.884 32.5394 787.121 36.081C783.247 39.7328 781.145 44.3813 780.591 50.1366H821.873C821.319 44.3813 819.217 39.7328 815.454 36.081C811.58 32.5394 806.821 30.7686 801.177 30.7686ZM898.239 83.2282C892.595 83.2282 887.614 81.9003 883.077 79.3546C878.539 76.8097 874.998 73.3782 872.452 68.8407C869.906 64.3031 868.578 59.2117 868.578 53.5673C868.578 47.9229 869.906 42.8315 872.452 38.294C874.998 33.7564 878.539 30.3257 883.077 27.78C887.614 25.2343 892.595 24.0173 898.239 24.0173C903.884 24.0173 908.864 25.2343 913.402 27.78C917.939 30.3257 921.481 33.7564 924.027 38.294C926.572 42.8315 927.789 47.9229 927.789 53.5673C927.789 59.2117 926.572 64.3031 924.027 68.8407C921.481 73.3782 917.939 76.8097 913.402 79.3546C908.864 81.9003 903.884 83.2282 898.239 83.2282ZM898.239 76.2559C902.334 76.2559 906.097 75.26 909.417 73.3782C912.627 71.4973 915.173 68.8407 917.054 65.41C918.935 61.9785 919.821 57.9947 919.821 53.5673C919.821 49.1407 918.935 45.1562 917.054 41.7255C915.173 38.294 912.627 35.5272 909.417 33.6455C906.097 31.7645 902.334 30.8787 898.239 30.8787C894.144 30.8787 890.381 31.7645 887.172 33.6455C883.852 35.5272 881.306 38.294 879.424 41.7255C877.543 45.1562 876.547 49.1407 876.547 53.5673C876.547 57.9947 877.543 61.9785 879.424 65.41C881.306 68.8407 883.852 71.4973 887.172 73.3782C890.381 75.26 894.144 76.2559 898.239 76.2559ZM963.096 6.64116C959.664 6.64116 957.119 7.52617 955.458 9.4079C953.688 11.2896 952.803 13.9455 952.803 17.598V24.4594H970.732V31.1006H953.024V82.6752H945.165V31.1006H934.762V24.4594H945.165V17.2661C945.165 11.9536 946.715 7.74801 949.814 4.64848C952.803 1.54976 957.119 0 962.764 0C964.976 0 967.079 0.331985 969.183 0.885813C971.286 1.54977 972.945 2.43557 974.384 3.65255L971.728 9.51884C969.404 7.6371 966.526 6.64116 963.096 6.64116Z" fill="white"/>
<path d="M462.78 113.439V192.363H454.775V129.224L423.77 182.328H419.823L388.818 129.562V192.363H380.812V113.439H387.69L421.965 171.955L455.902 113.439H462.78ZM511.036 192.926C505.286 192.926 500.212 191.573 495.589 188.98C490.967 186.387 487.359 182.892 484.766 178.269C482.172 173.646 480.819 168.46 480.819 162.71C480.819 156.96 482.172 151.773 484.766 147.151C487.359 142.528 490.967 139.033 495.589 136.439C500.212 133.847 505.286 132.606 511.036 132.606C516.786 132.606 521.859 133.847 526.482 136.439C531.105 139.033 534.713 142.528 537.306 147.151C539.9 151.773 541.14 156.96 541.14 162.71C541.14 168.46 539.9 173.646 537.306 178.269C534.713 182.892 531.105 186.387 526.482 188.98C521.859 191.573 516.786 192.926 511.036 192.926ZM511.036 185.824C515.208 185.824 519.041 184.808 522.424 182.892C525.693 180.975 528.287 178.269 530.203 174.774C532.12 171.279 533.022 167.22 533.022 162.71C533.022 158.2 532.12 154.141 530.203 150.646C528.287 147.151 525.693 144.332 522.424 142.415C519.041 140.498 515.208 139.596 511.036 139.596C506.865 139.596 503.031 140.498 499.761 142.415C496.379 144.332 493.786 147.151 491.869 150.646C489.952 154.141 488.938 158.2 488.938 162.71C488.938 167.22 489.952 171.279 491.869 174.774C493.786 178.269 496.379 180.975 499.761 182.892C503.031 184.808 506.865 185.824 511.036 185.824ZM611.607 108.703V192.363H603.94V180.636C601.572 184.583 598.415 187.627 594.469 189.769C590.523 191.912 586.013 192.926 581.052 192.926C575.528 192.926 570.454 191.686 565.944 189.093C561.434 186.499 557.939 183.004 555.346 178.382C552.753 173.759 551.512 168.573 551.512 162.71C551.512 156.847 552.753 151.66 555.346 147.038C557.939 142.415 561.434 138.92 565.944 136.327C570.454 133.847 575.528 132.606 581.052 132.606C585.901 132.606 590.185 133.621 594.131 135.538C597.965 137.567 601.121 140.498 603.602 144.332V108.703H611.607V108.703ZM581.729 185.824C585.901 185.824 589.621 184.808 593.004 182.892C596.273 180.975 598.98 178.269 600.896 174.774C602.812 171.279 603.715 167.22 603.715 162.71C603.715 158.2 602.812 154.141 600.896 150.646C598.98 147.151 596.273 144.332 593.004 142.415C589.621 140.498 585.901 139.596 581.729 139.596C577.557 139.596 573.724 140.498 570.454 142.415C567.071 144.332 564.479 147.151 562.562 150.646C560.645 154.141 559.631 158.2 559.631 162.71C559.631 167.22 560.645 171.279 562.562 174.774C564.479 178.269 567.071 180.975 570.454 182.892C573.724 184.808 577.557 185.824 581.729 185.824ZM685.57 165.191H635.961C636.412 171.391 638.779 176.353 643.064 180.073C647.349 183.907 652.761 185.824 659.3 185.824C663.02 185.824 666.403 185.147 669.447 183.793C672.491 182.553 675.197 180.636 677.452 178.044L681.962 183.23C679.369 186.387 676.099 188.755 672.153 190.446C668.207 192.137 663.809 192.926 659.074 192.926C652.986 192.926 647.574 191.573 642.951 188.98C638.216 186.387 634.496 182.892 631.902 178.269C629.308 173.646 627.956 168.46 627.956 162.71C627.956 156.96 629.196 151.773 631.79 147.151C634.27 142.528 637.765 139.033 642.162 136.439C646.559 133.847 651.407 132.606 656.932 132.606C662.457 132.606 667.305 133.847 671.702 136.439C676.099 139.033 679.482 142.528 681.962 147.038C684.442 151.66 685.682 156.847 685.682 162.71L685.57 165.191V165.191ZM656.932 139.484C651.182 139.484 646.447 141.287 642.613 144.895C638.667 148.617 636.525 153.352 635.961 159.215H678.016C677.452 153.352 675.31 148.617 671.477 144.895C667.531 141.287 662.683 139.484 656.932 139.484V139.484ZM709.698 144.67C711.615 140.724 714.434 137.68 718.155 135.65C721.875 133.621 726.385 132.606 731.91 132.606V140.386L729.993 140.273C723.792 140.273 718.831 142.19 715.336 146.023C711.841 149.857 710.037 155.269 710.037 162.146V192.363H702.031V133.057H709.698V144.67V144.67Z" fill="white"/>
<path d="M776.558 132.605C784 132.605 789.975 134.748 794.372 139.032C798.769 143.43 800.912 149.744 800.912 157.974V192.362H792.906V158.763C792.906 152.562 791.328 147.939 788.284 144.67C785.24 141.4 780.843 139.822 775.093 139.822C768.665 139.822 763.705 141.738 759.984 145.459C756.263 149.293 754.347 154.592 754.347 161.244V192.362H746.342V133.057H754.008V143.993C756.151 140.385 759.194 137.567 763.141 135.537C766.974 133.62 771.484 132.605 776.558 132.605V132.605Z" fill="white"/>
<path d="M409.846 226.786C419.697 226.786 427.445 229.11 433.089 233.869C438.734 238.629 441.501 245.048 441.501 253.349C441.501 261.651 438.734 268.07 433.089 272.719C427.445 277.478 419.697 279.802 409.846 279.802H389.038V304.263H380.847V226.786H409.846ZM409.625 272.608C417.262 272.608 423.128 270.948 427.223 267.516C431.318 264.196 433.31 259.437 433.31 253.349C433.31 247.041 431.318 242.281 427.223 238.85C423.128 235.53 417.262 233.869 409.625 233.869H389.038V272.608H409.625ZM474.263 304.816C469.504 304.816 465.076 304.152 460.76 302.713C456.443 301.385 453.012 299.725 450.577 297.622L454.119 291.423C456.554 293.305 459.653 294.855 463.306 296.073C466.958 297.29 470.832 297.954 474.816 297.954C480.129 297.954 484.114 297.069 486.659 295.408C489.205 293.748 490.422 291.423 490.422 288.436C490.422 286.332 489.758 284.561 488.32 283.344C486.881 282.126 485.11 281.242 483.007 280.577C480.904 280.024 478.026 279.36 474.484 278.806C469.725 277.921 465.962 277.035 463.084 276.039C460.206 275.153 457.771 273.604 455.779 271.391C453.677 269.177 452.68 266.077 452.68 262.204C452.68 257.333 454.673 253.349 458.767 250.25C462.863 247.151 468.508 245.602 475.702 245.602C479.465 245.602 483.228 246.045 486.992 247.041C490.754 248.037 493.854 249.364 496.289 251.025L492.857 257.333C488.099 254.014 482.342 252.353 475.702 252.353C470.721 252.353 466.958 253.239 464.412 255.01C461.867 256.78 460.539 259.105 460.539 261.983C460.539 264.197 461.313 265.967 462.752 267.295C464.191 268.623 465.962 269.62 468.065 270.173C470.168 270.837 473.156 271.501 476.919 272.166C481.568 273.051 485.331 273.936 488.099 274.821C490.865 275.707 493.3 277.257 495.293 279.36C497.285 281.463 498.281 284.451 498.281 288.214C498.281 293.305 496.178 297.29 491.972 300.278C487.656 303.267 481.789 304.816 474.263 304.816V304.816Z" fill="white"/>
<path d="M560.594 246.043L531.485 311.235C529.161 316.658 526.393 320.532 523.295 322.856C520.195 325.18 516.433 326.287 512.116 326.287C509.348 326.287 506.693 325.844 504.257 324.959C501.822 324.073 499.72 322.745 497.949 320.975L501.601 315.108C504.589 318.097 508.132 319.536 512.226 319.536C514.883 319.536 517.207 318.761 519.088 317.322C520.97 315.883 522.631 313.338 524.291 309.796L526.836 304.151L500.826 246.043H509.016L530.932 295.518L552.846 246.043H560.594V246.043Z" fill="white"/>
<path d="M594.13 304.815C588.375 304.815 583.283 303.598 578.746 301.052C574.207 298.507 570.555 294.965 568.009 290.427C565.463 285.889 564.135 280.798 564.135 275.152C564.135 269.508 565.463 264.417 568.009 259.878C570.555 255.341 574.207 251.909 578.746 249.364C583.283 246.819 588.375 245.601 594.13 245.601C599.111 245.601 603.649 246.597 607.633 248.479C611.507 250.47 614.607 253.348 616.93 257.112L611.064 261.096C609.183 258.218 606.748 256.005 603.76 254.566C600.771 253.127 597.562 252.463 594.13 252.463C589.924 252.463 586.161 253.348 582.84 255.23C579.41 257.112 576.864 259.878 574.982 263.31C573.1 266.741 572.105 270.726 572.105 275.152C572.105 279.691 573.1 283.564 574.982 286.996C576.864 290.427 579.41 293.083 582.84 294.965C586.161 296.846 589.924 297.843 594.13 297.843C597.562 297.843 600.771 297.179 603.76 295.74C606.748 294.3 609.183 292.197 611.064 289.32L616.93 293.304C614.607 297.068 611.507 299.945 607.522 301.827C603.538 303.819 599.111 304.815 594.13 304.815Z" fill="white"/>
<path d="M661.093 245.602C668.398 245.602 674.265 247.705 678.581 251.91C682.898 256.227 685.001 262.425 685.001 270.505V304.263H677.142V271.28C677.142 265.193 675.593 260.654 672.604 257.444C669.615 254.235 665.299 252.685 659.655 252.685C653.345 252.685 648.476 254.567 644.823 258.219C641.171 261.983 639.289 267.184 639.289 273.715V304.263H631.431V222.137H639.289V256.228C641.392 252.796 644.38 250.25 648.144 248.369C651.907 246.487 656.223 245.602 661.093 245.602V245.602Z" fill="white"/>
<path d="M730.379 304.816C724.735 304.816 719.753 303.488 715.216 300.942C710.677 298.397 707.136 294.966 704.59 290.427C702.044 285.89 700.717 280.799 700.717 275.153C700.717 269.509 702.044 264.418 704.59 259.879C707.136 255.342 710.677 251.91 715.216 249.364C719.753 246.82 724.735 245.602 730.379 245.602C736.024 245.602 741.005 246.82 745.542 249.364C750.081 251.91 753.622 255.342 756.168 259.879C758.714 264.418 759.931 269.509 759.931 275.153C759.931 280.799 758.714 285.89 756.168 290.427C753.622 294.966 750.081 298.397 745.542 300.942C741.005 303.488 736.024 304.816 730.379 304.816ZM730.379 297.843C734.475 297.843 738.237 296.847 741.558 294.966C744.767 293.084 747.313 290.427 749.195 286.997C751.077 283.565 751.962 279.581 751.962 275.153C751.962 270.727 751.077 266.742 749.195 263.311C747.313 259.879 744.767 257.112 741.558 255.231C738.237 253.349 734.475 252.464 730.379 252.464C726.284 252.464 722.521 253.349 719.311 255.231C715.991 257.112 713.445 259.879 711.563 263.311C709.682 266.742 708.686 270.727 708.686 275.153C708.686 279.581 709.682 283.565 711.563 286.997C713.445 290.427 715.991 293.084 719.311 294.966C722.521 296.847 726.284 297.843 730.379 297.843ZM775.98 222.137H783.839V304.263H775.98V222.137ZM829.55 304.816C823.906 304.816 818.924 303.488 814.387 300.942C809.849 298.397 806.307 294.966 803.761 290.427C801.216 285.89 799.888 280.799 799.888 275.153C799.888 269.509 801.216 264.418 803.761 259.879C806.307 255.342 809.849 251.91 814.387 249.364C818.924 246.82 823.906 245.602 829.55 245.602C835.195 245.602 840.176 246.82 844.713 249.364C849.252 251.91 852.793 255.342 855.339 259.879C857.885 264.418 859.103 269.509 859.103 275.153C859.103 280.799 857.885 285.89 855.339 290.427C852.793 294.966 849.252 298.397 844.713 300.942C840.176 303.488 835.195 304.816 829.55 304.816ZM829.55 297.843C833.646 297.843 837.408 296.847 840.729 294.966C843.939 293.084 846.484 290.427 848.366 286.997C850.248 283.565 851.134 279.581 851.134 275.153C851.134 270.727 850.248 266.742 848.366 263.311C846.484 259.879 843.939 257.112 840.729 255.231C837.408 253.349 833.646 252.464 829.55 252.464C825.455 252.464 821.692 253.349 818.482 255.231C815.162 257.112 812.616 259.879 810.734 263.311C808.853 266.742 807.857 270.727 807.857 275.153C807.857 279.581 808.853 283.565 810.734 286.997C812.616 290.427 815.162 293.084 818.482 294.966C821.692 296.847 825.455 297.843 829.55 297.843ZM929.053 246.045V297.18C929.053 307.03 926.619 314.446 921.859 319.205C916.989 323.964 909.684 326.288 899.944 326.288C894.52 326.288 889.429 325.513 884.67 323.964C879.8 322.304 875.816 320.09 872.827 317.323L876.811 311.346C879.579 313.892 883.01 315.773 887.105 317.212C891.09 318.651 895.295 319.315 899.723 319.315C907.138 319.315 912.562 317.655 915.993 314.225C919.424 310.793 921.195 305.37 921.195 298.175V290.759C918.76 294.412 915.55 297.29 911.676 299.171C907.692 301.053 903.264 302.049 898.505 302.049C893.082 302.049 888.101 300.831 883.674 298.397C879.136 296.073 875.705 292.641 873.159 288.325C870.613 284.008 869.285 279.138 869.285 273.715C869.285 268.291 870.613 263.422 873.159 259.105C875.705 254.789 879.136 251.468 883.564 249.143C887.99 246.82 892.971 245.602 898.505 245.602C903.486 245.602 907.913 246.598 911.897 248.59C915.882 250.582 919.092 253.46 921.527 257.223V246.045H929.053V246.045ZM899.28 295.076C903.486 295.076 907.249 294.191 910.68 292.309C914.111 290.538 916.768 287.993 918.649 284.783C920.531 281.573 921.416 277.81 921.416 273.715C921.416 269.62 920.531 265.856 918.649 262.647C916.768 259.437 914.111 257.002 910.791 255.121C907.36 253.349 903.596 252.464 899.28 252.464C895.074 252.464 891.311 253.349 887.99 255.121C884.559 256.891 882.014 259.437 880.132 262.647C878.25 265.856 877.254 269.62 877.254 273.715C877.254 277.81 878.25 281.573 880.132 284.783C882.014 287.993 884.559 290.538 887.99 292.309C891.311 294.191 895.074 295.076 899.28 295.076V295.076ZM1000 246.045L970.89 311.236C968.567 316.659 965.799 320.533 962.7 322.858C959.601 325.181 955.838 326.288 951.522 326.288C948.754 326.288 946.098 325.845 943.663 324.96C941.228 324.075 939.125 322.747 937.354 320.976L941.007 315.11C943.995 318.098 947.537 319.537 951.632 319.537C954.288 319.537 956.612 318.762 958.494 317.323C960.376 315.884 962.036 313.339 963.696 309.797L966.242 304.152L940.232 246.045H948.422L970.337 295.519L992.252 246.045H1000V246.045Z" fill="white"/>
<path fill-rule="evenodd" clip-rule="evenodd" d="M130.913 290.432C129.255 291.542 127.718 292.561 125.979 293.721C124.308 294.835 122.68 296.059 120.99 296.953V229.762H179.96V262.365C179.96 263.347 176.439 264.647 174.856 265.484C174.856 259.341 174.855 253.198 174.856 247.056C174.857 243.635 174.975 241.169 173.365 239.192C169.719 234.715 161.478 235.674 159.157 240.145C157.908 242.55 158.413 247.569 158.413 251.025C158.413 258.68 158.413 266.334 158.413 273.989C156.68 274.906 154.937 276.212 153.253 277.334C151.521 278.489 149.704 279.851 147.923 280.793C147.923 276.56 148.247 244.209 147.682 241.627C146.39 235.717 137.565 234.843 133.808 238.327C130.544 241.355 131.48 246.132 131.48 251.592C131.48 252.912 131.507 254.256 131.491 255.572C131.471 257.181 131.189 257.533 131.186 259.237C131.172 269.92 130.913 279.709 130.913 290.432V290.432ZM115.603 226.36V302.907C115.603 303.786 116.894 304.892 118.439 304.892C119.79 304.892 129.503 297.987 130.799 297.123C132.897 295.724 135.833 294.28 136.202 292.603L136.867 262.932C136.858 255.889 137.15 249.629 137.15 242.803C138.661 241.791 138.277 241.952 140.552 241.952C142.958 241.952 142.255 244.06 142.253 246.488L142.242 284.489C142.239 285.639 142.245 286.374 142.626 287.224C144.283 290.936 148.886 286.862 150.589 285.726L160.625 279.036C162.692 277.658 164.078 277.436 164.097 274.003L164.067 244.489C164.028 241.663 164.358 241.952 167.768 241.952C168.451 241.952 168.602 242.412 169.187 242.803V266.902C169.181 270.834 169.053 272.572 172.305 272.572C173.423 272.572 178.729 269.643 180.054 268.981C181.419 268.298 182.501 267.807 183.848 267.104C185.222 266.386 185.63 265.177 185.63 263.216V228.344C185.63 225.27 184.461 224.092 181.377 224.092H119.573C118.727 224.092 117.534 224.269 116.925 224.563C116.351 224.84 115.603 225.743 115.603 226.36V226.36Z" fill="white"/>
<path fill-rule="evenodd" clip-rule="evenodd" d="M77.897 226.643C77.897 232.52 79.3805 236.229 83.0705 239.898C89.0541 245.848 98.545 247.096 105.185 241.174C115.614 231.872 108.715 217.004 98.0263 217.004C85.2204 217.004 82.9517 233.225 93.0395 235.884C102.321 238.331 104.814 225.226 96.8923 225.226C95.3904 225.226 92.4545 226.989 94.0569 230.329C90.4611 229.369 92.67 220.592 99.5976 222.8C107.99 225.475 106.212 239.401 94.3402 239.401C91.4147 239.401 87.9353 237.361 86.6792 235.722C82.8343 230.708 81.9238 225.54 85.7152 220.002C86.1517 219.365 86.8285 218.404 87.316 217.918C89.687 215.557 93.6491 213.602 97.1756 213.602H203.775C206.082 213.602 207.551 214.211 209.245 214.936C215.329 217.536 219.557 225.14 216.624 232.121C215.946 233.732 215.366 234.289 214.391 235.558C208.881 242.725 196.12 239.232 196.12 230.329C196.12 226.548 198.268 223.905 201.139 222.872C208.118 220.361 210.569 229.348 206.893 230.329C209.733 224.411 199.239 222.874 199.239 230.045C199.239 231.931 200.64 234.064 201.776 234.88C209.163 240.189 219.625 228.705 211.225 220.327C203.604 212.726 189.616 218.637 190.733 232.023C191.613 242.561 207.041 250.738 217.738 240.04C220.983 236.795 222.748 232.849 223.053 228.736V226.127C222.871 223.665 222.178 221.184 220.979 218.796C219.635 216.121 218.569 215.216 216.608 213.244C214.955 211.582 212.876 210.381 210.501 209.427C208.118 208.468 205.317 207.932 202.073 207.932H98.877C95.633 207.932 92.8328 208.468 90.4483 209.427C83.6435 212.162 77.897 218.883 77.897 226.643V226.643Z" fill="white"/>
<path fill-rule="evenodd" clip-rule="evenodd" d="M88.6705 187.802V186.668H212.28C212.28 189.415 210.749 189.759 207.531 192.977C205.954 194.554 203.631 197.442 202.074 197.442H98.8772C97.3179 197.442 95.0028 194.56 93.4195 192.977C92.5728 192.13 88.6705 188.794 88.6705 187.802V187.802ZM83.2838 183.833C83.2838 192.154 82.2336 189.445 89.4502 196.662C90.6057 197.818 91.5545 198.766 92.7101 199.923C93.639 200.851 95.0427 202.828 96.6084 202.828H204.342C206.018 202.828 210.185 197.978 211.501 196.662C212.656 195.506 213.605 194.558 214.761 193.401C218.329 189.834 217.667 191.358 217.667 183.833C217.667 182.432 216.516 181.282 215.115 181.282H85.8351C84.4338 181.282 83.2838 182.432 83.2838 183.833V183.833Z" fill="white"/>
<path fill-rule="evenodd" clip-rule="evenodd" d="M213.541 140.757C214.87 145.027 220.448 165.458 221.509 169.682L206.019 169.65L213.541 140.757V140.757ZM213.063 111.726C223.687 111.373 224.022 126.252 213.876 126.802C210.82 126.802 206.64 124.879 206.241 119.582C205.95 114.669 210.405 111.726 213.063 111.726V111.726ZM144.881 77.7015C144.881 82.8383 151.007 83.2365 153.322 83.6204C157.636 84.3346 194.531 90.311 197.643 90.6573C194.263 91.6884 158.261 104.743 154.089 106.139C149.738 107.595 150.959 107.677 146.704 106.244C115.339 95.1837 92.0237 87.7885 60.8832 77.7781C64.1743 76.5986 145.53 48.3406 150.443 48.1099C154.415 47.9272 232.401 75.2826 236.506 76.8795C231.102 79.3621 213.227 84.3537 208.98 84.0337C202.619 82.9396 195.974 81.8671 189.282 80.7507C186.238 80.2408 152.195 74.3003 149.775 74.3003C146.682 74.3003 144.881 75.2188 144.881 77.7015V77.7015ZM50.501 77.2888C50.501 83.1998 56.4231 83.5757 64.8095 86.3704L82.0987 92.0619C82.0987 95.2595 81.7268 120.027 82.3708 121.743C83.4498 124.608 89.7406 128.375 92.2903 130.289C94.3779 131.852 97.3601 133.344 99.8795 134.599L108.347 138.441C120.694 143.941 135.322 145.46 148.983 146.231L160.414 145.758C171.491 144.545 180.201 142.974 190.37 139.192C193.377 138.076 196.515 137.305 197.456 133.933C198.223 131.182 196.831 126.453 188.519 129.781C163.63 139.749 125.054 140.746 102.241 127.488L88.8077 119.174L88.3688 94.2141C96.1144 96.0193 147.464 114.629 150.215 114.629C153.766 114.629 199.809 97.6784 208.072 95.7543V104.781C205.772 105.886 207.037 104.877 204.041 106.906C202.589 107.888 201.759 108.793 200.736 110.167C192.978 120.54 200.594 132.463 206.84 133.918L197.404 172.077C197.404 174.564 199.411 177.411 201.916 177.411H224.487C232.229 177.411 227.729 165.768 226.947 162.642L222.187 143.599C221.561 141.098 220.024 136.229 219.972 133.918C224.614 132.834 229.575 125.726 229.08 118.657C228.775 114.313 227.178 111.231 224.654 108.715C224.595 108.655 224.509 108.57 224.45 108.514L222.443 106.825C217.918 103.586 218.74 108.205 218.74 92.8807C218.74 91.3883 223.757 90.3198 226.381 89.4451L243.619 83.7018C246.686 82.6899 249.37 82.0044 250.055 78.6327C250.724 75.3345 248.384 73.3322 245.472 72.3044L219.615 63.6953C208.195 59.8911 196.693 56.0535 185.144 52.2046L150.624 40.7705C148.145 40.7705 69.5179 67.466 60.8114 70.3652C56.7583 71.7163 50.501 72.7178 50.501 77.2888V77.2888Z" fill="white"/>
<path fill-rule="evenodd" clip-rule="evenodd" d="M205.56 14.6887L206.906 18.1082C206.389 18.5288 202.249 21.1431 204.239 24.0958C210.953 31.0106 214.196 33.5978 224.104 35.8985C228.797 36.9886 229.535 40.0826 233.348 43.0584C235.142 44.4581 241.371 48.1777 242.673 50.1895C251.324 63.5468 244.558 54.6808 253.922 64.8189C255.926 66.9879 255.766 68.7891 256.951 71.7377C259.186 77.3008 261.298 79.2416 263.706 83.2373C265.656 86.4733 265.66 93.8502 267.236 98.3638C270.354 107.295 268.655 103.485 268.06 111.668C267.654 117.251 269.363 121.605 267.596 125.553C259.911 142.72 267.593 137.378 259.239 147.799C252.924 155.674 258.741 155.972 249.674 161.656C236.147 170.136 239.32 179.014 237.471 181.633C232.447 187.026 215.275 200.481 219.167 207.454C221.57 208.913 226.956 212.448 230.882 208.935C233.127 206.924 233.131 201.444 237.499 198.172C244.598 190.407 246.464 188.517 246.474 188.509C252.846 186.94 250.909 186.098 257.711 186.659C261.951 187.01 266.872 185.307 270.447 183.576C274.959 181.393 280.053 177.833 281.969 173.033C283.42 169.397 282.077 170.463 281.171 168.2C285.777 164.887 290.639 159.814 292.065 153.973C292.819 150.881 291.966 150.548 290.75 148.132C293.439 146.117 299.308 135.801 297.511 129.955C296.804 127.655 295.932 128.183 296.561 125.836C297.365 122.835 301.344 115.519 298.773 108.993C297.628 106.084 297.071 106.727 296.927 107.032C296.873 107.144 296.877 107.211 296.927 107.032C297.047 106.605 297.437 104.785 297.973 98.8889C298.935 88.2983 294.891 86.81 293.954 84.3066C293.201 82.2932 294.663 74.55 290.828 68.2911C290.421 67.6271 289.748 66.7429 289.117 66.2841C288.987 66.1891 288.811 66.0877 288.671 66.0023L286.523 65.0663C285.865 60.5447 285.087 56.2337 283.136 52.4112C279.299 44.8906 277.566 47.2903 276.16 47.4068C274.727 42.7432 272.834 38.1809 270.475 35.0175C264.731 27.3134 263.101 30.681 262.026 30.5534C258.956 26.1307 256.26 20.4337 250.32 17.4451C247.607 16.0804 247.008 16.8066 245.911 17.6909C245.809 17.7722 245.62 17.9773 245.539 18.05C245.456 18.1226 245.308 18.3213 245.17 18.425C240.059 13.6401 234.739 6.61189 226.576 7.56473L225.497 11.6003C222.853 10.7784 213.83 3.43896 206.407 5.38135C202.402 6.42915 204.39 11.0968 205.56 14.6887ZM243.248 187.37C242.122 186.319 241.147 185.48 240.116 183.851C236.866 185.18 231.428 190.816 229.004 193.232C225.657 196.567 222.197 200.128 221.152 204.735C222.646 206.758 226.029 208.833 228.824 206.839C230.083 205.942 231.244 201.332 232.469 199.58C235.67 195.007 239.857 191.93 243.248 187.37ZM279.333 171.145C275.863 168.397 270.168 167.433 265.146 168.14C264.182 169.921 263.122 172.517 262.662 174.579L265.574 175.403C261.989 177.286 262.399 175.04 258.269 180.625C256.749 182.681 256.987 181.868 256.764 183.862C265.579 183.751 277.558 178.677 279.333 171.145ZM244.217 184.874C250.601 187.326 256.065 179.347 258.142 176.174C259.839 173.583 265.075 164.235 262.22 160.258C253.186 159.858 236.882 172.329 241.919 182.668C246.158 178.786 249.768 171.823 256.103 168.116L244.217 184.874ZM275.561 152.198L274.674 159.221L279.891 157.328C276.419 160.72 273.348 160.26 272.891 165.465C278.642 167.793 279.556 166.311 283.518 162.472C286.707 159.385 289.006 156.553 289.542 152.234C286.249 149.595 279.858 150.956 275.561 152.198ZM271.543 142.107C264.889 141.535 258.297 153.886 257.346 157.94C266.007 156.406 262.898 159.039 267.066 152.102C266.207 157.35 265.312 158.162 265.887 165.166C269.598 165.093 270.091 164.938 271.067 161.733C272.904 155.703 273.502 148.682 271.543 142.107V142.107ZM291.759 142.621C292.991 140.758 293.542 139.235 294.259 137.064C295.062 134.631 295.499 132.777 294.232 130.836C283.183 130.321 282.313 134.232 283.262 140.948L287.276 138.289C284.599 141.494 282.653 142.57 281.737 147.587C287.518 149.824 289.407 146.174 291.759 142.621ZM275.596 149.19C284.027 146.485 280.105 124.697 275.502 120.518C270.232 123.241 266.355 133.281 266.138 140.527L272.63 137.994L274.233 131.446C274.945 138.735 273.271 132.648 275.596 149.19ZM287.158 113.727C286.806 127.114 290.843 111.734 285.85 129.25L292.849 127.824C294.484 123.176 298.011 117.987 296.46 110.006C292.058 110.633 290.614 111.894 287.158 113.727V113.727ZM282.551 128.181C288.018 121.499 282.399 102.229 275.586 98.3335C271.325 101.462 269.813 111.295 270.879 119.811L276.74 116.88L277.345 111.914C278.994 118.802 278.143 117.801 280.892 124.838C281.132 125.453 281.357 126.064 281.636 126.652L282.551 128.181V128.181ZM288.105 100.218C288.206 100.2 288.545 100.123 288.662 100.098C289.009 100.024 289.143 99.9471 289.169 99.8808C289.243 99.6965 288.498 99.5959 289.169 99.8808C289.21 99.8976 289.255 99.9159 289.307 99.9359C288.522 102.038 286.306 108.191 286.011 110.87C292.069 108.099 293.537 108.975 294.728 102.623C295.514 98.4244 295.885 94.2252 294.338 89.2464C290.884 88.6423 288.251 92.0139 286.22 93.6084L288.105 100.218V100.218ZM283.779 104.688C288.413 97.454 276.201 79.6438 269.232 77.8386C265.611 82.6188 267.923 92.7306 270.425 99.8042C272.585 98.1028 272.019 96.9944 275.079 95.0081L273.676 89.5329L276.309 93.6196C278.615 98.2465 279.636 97.7948 283.779 104.688ZM284.697 90.8887C288.046 88.7364 291.117 87.6631 291.167 82.5198C291.217 77.3327 290.516 73.882 288.473 69.0987C278.635 71.9022 280.293 84.463 282.603 86.4836C283.59 84.8804 285.371 80.3764 285.381 78.8681C285.681 82.9101 283.596 86.3128 284.697 90.8887ZM278.635 81.1113C279.069 70.2127 264.612 58.8369 257.785 58.9726C255.933 65.2442 260.78 76.8012 264.943 80.0548C266.211 77.8019 266.426 76.3607 267.76 74.056L265.252 69.1554C267.983 71.168 269.587 74.2404 271.878 76.0064C273.31 77.1109 273.983 77.3375 275.592 78.6805C277.141 79.9741 277.398 80.3628 278.635 81.1113V81.1113ZM279.325 72.266C280.662 71.95 282.021 70.4721 283.143 68.9558C285.857 65.2865 281.893 53.8596 278.422 50.4928C275.009 51.9922 272.098 58.564 271.491 62.5892C272.331 63.7615 275.128 66.6551 276.441 67.525L277.623 62.7161C278.147 66.9129 277.263 68.3797 279.325 72.266V72.266ZM270.202 57.2632C272.545 51.2174 275.61 52.1471 272.287 43.8732C270.362 39.0787 267.663 34.1277 263.921 33.3792C258.904 43.7974 260.456 44.6137 264.739 48.2998C266.281 49.6277 265.805 50.2167 266.563 47.5576L270.202 57.2632ZM267.166 59.3261C266.904 51.7736 260.709 48.0764 257.39 45.656C255.004 43.9139 246.578 39.101 243.008 41.5286C243.644 49.1681 249.895 58.5855 254.177 61.1943C254.876 59.7666 254.714 59.457 255.211 57.742L256.225 54.7845L252.416 49.848C257.812 52.2596 258.668 56.6687 267.166 59.3261V59.3261ZM252.854 39.7769C250.354 30.2581 235.644 25.2585 225.561 27.212C227.684 35.4269 236.434 43.8668 240.466 44.4461L240.323 37.0134L235.554 33.4294C240.819 34.893 239.723 36.7859 252.854 39.7769ZM258.328 42.1854C258.968 35.3471 262.416 35.7525 257.825 28.7131C254.909 24.2418 252.354 20.835 248.211 19.9564C246.773 22.3345 246.366 24.5083 246.599 28.1529C248.988 30.1224 249.607 29.5966 251.615 32.6107C252.014 31.6148 252.388 32.8046 251.921 29.6979L256.616 39.8455C257.812 42.0433 256.936 40.8678 258.328 42.1854ZM235.671 24.2442C231.106 15.5489 214.084 16.4331 206.493 21.8429C209.362 27.4092 217.541 32.3984 224.409 32.8804L222.723 26.0509L216.773 24.2035C220.181 23.7845 222.17 24.7693 226.016 24.2466C230.365 23.6553 231.91 24.1875 235.671 24.2442V24.2442ZM243.794 26.7364C244.528 19.899 242.555 19.1991 238.683 15.5697C236.462 13.4877 232.672 10.5438 228.572 10.5868C227.768 12.9761 227.855 12.8388 228.252 15.5409C231.853 17.8999 233.695 17.2902 236.746 20.9651C239.708 24.5339 238.539 26.4978 243.794 26.7364ZM224.65 15.2201C221.875 11.8533 213.487 7.38596 206.512 8.46967L209.144 16.1626L213.181 15.9057C217.301 14.8898 220.37 15.3335 224.65 15.2201V15.2201Z" fill="white"/>
<path fill-rule="evenodd" clip-rule="evenodd" d="M94.0665 14.6887L92.7211 18.1082C93.2382 18.5288 97.3775 21.1431 95.3881 24.0958C88.6743 31.0106 85.4311 33.5978 75.5229 35.8985C70.8297 36.9886 70.0923 40.0826 66.2794 43.0584C64.4846 44.4581 58.256 48.1777 56.9537 50.1895C48.3031 63.5468 55.0687 54.6808 45.7047 64.8189C43.7009 66.9879 43.8613 68.7891 42.6762 71.7377C40.441 77.3008 38.3286 79.2416 35.921 83.2373C33.9714 86.4733 33.9674 93.8502 32.3913 98.3638C29.2727 107.295 30.9716 103.485 31.567 111.668C31.9732 117.251 30.2638 121.605 32.0306 125.553C39.7156 142.72 32.0338 137.378 40.3883 147.799C46.7031 155.674 40.8863 155.972 49.9526 161.656C63.4799 170.136 60.307 179.014 62.156 181.633C67.1803 187.026 84.3522 200.481 80.4594 207.454C78.0566 208.913 72.6707 212.448 68.7453 208.935C66.4996 206.924 66.4956 201.444 62.1281 198.172C55.0288 190.407 53.1631 188.517 53.1527 188.509C46.7805 186.94 48.7181 186.098 41.9157 186.659C37.6758 187.01 32.7544 185.307 29.1801 183.576C24.6681 181.393 19.5743 177.833 17.6582 173.033C16.2066 169.397 17.5497 170.463 18.4554 168.2C13.85 164.887 8.98769 159.814 7.56242 153.973C6.80749 150.881 7.66057 150.548 8.87676 148.132C6.18822 146.117 0.318764 135.801 2.11591 129.955C2.82296 127.655 3.69519 128.183 3.06635 125.836C2.26194 122.835 -1.717 115.519 0.853434 108.993C1.9994 106.084 2.55563 106.727 2.70007 107.032C2.75354 107.144 2.75035 107.211 2.70007 107.032C2.57957 106.605 2.19012 104.785 1.65385 98.8889C0.692235 88.2983 4.73583 86.81 5.67271 84.3066C6.42604 82.2932 4.96406 74.55 8.79856 68.2911C9.20555 67.6271 9.87908 66.7429 10.5095 66.2841C10.6404 66.1891 10.816 66.0877 10.9556 66.0023L13.1039 65.0663C13.7615 60.5447 14.5403 56.2337 16.4907 52.4112C20.3284 44.8906 22.0609 47.2903 23.467 47.4068C24.9003 42.7432 26.7932 38.1809 29.1521 35.0175C34.8955 27.3134 36.5259 30.681 37.6008 30.5534C40.6708 26.1307 43.3673 20.4337 49.307 17.4451C52.0203 16.0804 52.6188 16.8066 53.7161 17.6909C53.8182 17.7722 54.0066 17.9773 54.088 18.05C54.171 18.1226 54.3186 18.3213 54.4567 18.425C59.568 13.6401 64.8876 6.61189 73.0506 7.56473L74.1295 11.6003C76.7742 10.7784 85.7966 3.43896 93.2198 5.38135C97.2251 6.42915 95.2372 11.0968 94.0665 14.6887V14.6887ZM56.3791 187.37C57.5051 186.319 58.4803 185.48 59.5105 183.851C62.7609 185.18 68.1986 190.816 70.623 193.232C73.9699 196.567 77.4302 200.128 78.4748 204.735C76.9809 206.758 73.598 208.833 70.8034 206.839C69.5441 205.942 68.383 201.332 67.158 199.58C63.9571 195.007 59.7699 191.93 56.3791 187.37V187.37ZM20.2941 171.145C23.7639 168.397 29.4594 167.433 34.4805 168.14C35.4446 169.921 36.5051 172.517 36.9648 174.579L34.0528 175.403C37.6383 177.286 37.2281 175.04 41.3579 180.625C42.8781 182.681 42.6403 181.868 42.863 183.862C34.048 183.751 22.0689 178.677 20.2941 171.145V171.145ZM55.4095 184.874C49.0261 187.326 43.562 179.347 41.4848 176.174C39.7882 173.583 34.5524 164.235 37.4069 160.258C46.4405 159.858 62.7449 172.329 57.7078 182.668C53.4687 178.786 49.8585 171.823 43.5237 168.116L55.4095 184.874V184.874ZM24.0655 152.198L24.9529 159.221L19.7355 157.328C23.2077 160.72 26.2785 160.26 26.7357 165.465C20.9852 167.793 20.0714 166.311 16.1085 162.472C12.9204 159.385 10.6213 156.553 10.085 152.234C13.3784 149.595 19.769 150.956 24.0655 152.198V152.198ZM28.0844 142.107C34.7383 141.535 41.33 153.886 42.2804 157.94C33.6203 156.406 36.7286 159.039 32.5613 152.102C33.42 157.35 34.3154 158.162 33.74 165.166C30.0292 165.093 29.536 164.938 28.56 161.733C26.723 155.703 26.1252 148.682 28.0844 142.107ZM7.86807 142.621C6.63592 140.758 6.08448 139.235 5.36786 137.064C4.56504 134.631 4.12774 132.777 5.395 130.836C16.4444 130.321 17.3143 134.232 16.3646 140.948L12.3506 138.289C15.0279 141.494 16.9735 142.57 17.8896 147.587C12.1088 149.824 10.2198 146.174 7.86807 142.621ZM24.0312 149.19C15.6001 146.485 19.5216 124.697 24.1254 120.518C29.3947 123.241 33.2723 133.281 33.4886 140.527L26.9967 137.994L25.3942 131.446C24.6824 138.735 26.3559 132.648 24.0312 149.19ZM12.4687 113.727C12.8214 127.114 8.7842 111.734 13.7766 129.25L6.77796 127.824C5.14281 123.176 1.61555 117.987 3.1669 110.006C7.5688 110.633 9.01323 111.894 12.4687 113.727ZM17.0757 128.181C11.6092 121.499 17.2281 102.229 24.0408 98.3335C28.3022 101.462 29.8137 111.295 28.7483 119.811L22.8869 116.88L22.282 111.914C20.6332 118.802 21.4839 117.801 18.7347 124.838C18.4945 125.453 18.2695 126.064 17.991 126.652L17.0757 128.181V128.181ZM11.5222 100.218C11.4209 100.2 11.0817 100.123 10.9652 100.098C10.6181 100.024 10.484 99.9471 10.4577 99.8808C10.3834 99.6965 11.1288 99.5959 10.4577 99.8808C10.417 99.8976 10.3715 99.9159 10.3204 99.9359C11.1049 102.038 13.321 108.191 13.6162 110.87C7.55764 108.099 6.09008 108.975 4.89943 102.623C4.11258 98.4244 3.74228 94.2252 5.28885 89.2464C8.7427 88.6423 11.3762 92.0139 13.4071 93.6084L11.5222 100.218V100.218ZM15.8483 104.688C11.2142 97.454 23.4255 79.6438 30.3947 77.8386C34.0161 82.6188 31.7042 92.7306 29.2024 99.8042C27.0422 98.1028 27.608 96.9944 24.5476 95.0081L25.9513 89.5329L23.3178 93.6196C21.0115 98.2465 19.9908 97.7948 15.8483 104.688V104.688ZM14.9298 90.8887C11.5813 88.7364 8.50967 87.6631 8.4602 82.5198C8.40992 77.3327 9.11138 73.882 11.1543 69.0987C20.9916 71.9022 19.3341 84.463 17.0238 86.4836C16.0366 84.8804 14.2554 80.3764 14.2459 78.8681C13.9458 82.9101 16.031 86.3128 14.9298 90.8887V90.8887ZM20.9916 81.1113C20.5574 70.2127 35.0144 58.8369 41.8415 58.9726C43.6937 65.2442 38.8465 76.8012 34.684 80.0548C33.416 77.8019 33.2013 76.3607 31.867 74.056L34.3752 69.1554C31.6444 71.168 30.0395 74.2404 27.7484 76.0064C26.3168 77.1109 25.644 77.3375 24.0352 78.6805C22.4854 79.9741 22.2285 80.3628 20.9916 81.1113V81.1113ZM20.3021 72.266C18.9654 71.95 17.6055 70.4721 16.4835 68.9558C13.7702 65.2865 17.734 53.8596 21.2054 50.4928C24.6178 51.9922 27.529 58.564 28.1355 62.5892C27.2959 63.7615 24.4989 66.6551 23.1861 67.525L22.0042 62.7161C21.4799 66.9129 22.3642 68.3797 20.3021 72.266V72.266ZM29.4251 57.2632C27.0821 51.2174 24.0169 52.1471 27.3398 43.8732C29.2647 39.0787 31.9636 34.1277 35.7055 33.3792C40.7227 43.7974 39.1705 44.6137 34.8883 48.2998C33.3457 49.6277 33.8222 50.2167 33.0641 47.5576L29.4251 57.2632ZM32.4607 59.3261C32.7233 51.7736 38.9183 48.0764 42.2365 45.656C44.6234 43.9139 53.0489 39.101 56.6193 41.5286C55.9825 49.1681 49.7324 58.5855 45.4502 61.1943C44.7511 59.7666 44.9131 59.457 44.4159 57.742L43.4016 54.7845L47.2106 49.848C41.8152 52.2596 40.9589 56.6687 32.4607 59.3261ZM46.7725 39.7769C49.2727 30.2581 63.9827 25.2585 74.0657 27.212C71.9429 35.4269 63.1926 43.8668 59.161 44.4461L59.3039 37.0134L64.0728 33.4294C58.8083 34.893 59.904 36.7859 46.7725 39.7769V39.7769ZM41.2988 42.1854C40.6588 35.3471 37.2114 35.7525 41.8024 28.7131C44.7184 24.2418 47.2729 20.835 51.4162 19.9564C52.8542 22.3345 53.2604 24.5083 53.0274 28.1529C50.6389 30.1224 50.0197 29.5966 48.0118 32.6107C47.6128 31.6148 47.2385 32.8046 47.7062 29.6979L43.0106 39.8455C41.8152 42.0433 42.6914 40.8678 41.2988 42.1854ZM63.9563 24.2442C68.521 15.5489 85.5429 16.4331 93.1337 21.8429C90.2648 27.4092 82.0858 32.3984 75.218 32.8804L76.9034 26.0509L82.8535 24.2035C79.446 23.7845 77.4565 24.7693 73.6108 24.2466C69.2616 23.6553 67.7166 24.1875 63.9563 24.2442V24.2442ZM55.8333 26.7364C55.0991 19.899 57.0718 19.1991 60.9438 15.5697C63.1647 13.4877 66.9553 10.5438 71.0547 10.5868C71.8592 12.9761 71.7722 12.8388 71.3748 15.5409C67.7741 17.8999 65.9314 17.2902 62.8814 20.9651C59.9191 24.5339 61.0882 26.4978 55.8333 26.7364ZM74.977 15.2201C77.7518 11.8533 86.1398 7.38596 93.1145 8.46967L90.4826 16.1626L86.4454 15.9057C82.326 14.8898 79.2568 15.3335 74.977 15.2201V15.2201Z" fill="white"/>
</svg>
