<svg width="68" height="89" viewBox="0 0 68 89" fill="none" xmlns="http://www.w3.org/2000/svg">
<g clip-path="url(#clip0_160_4)">
<path d="M30.9463 89C30.4018 88.6211 30.1045 88.1378 30.0319 87.4373C29.8849 86.0293 29.5945 84.6352 29.4511 83.2272C29.3923 82.6553 29.1174 82.5145 28.6541 82.4345C27.209 82.1877 25.7638 81.9304 24.3204 81.6697C23.6601 81.5497 23.0032 81.4246 22.7819 80.6284C22.5745 79.8845 23.0084 79.436 23.4716 78.9753C25.0274 77.4335 26.5746 75.8829 28.0699 74.1064C27.7518 74.1064 27.4337 74.1064 27.1156 74.1064C19.6288 74.1064 12.1421 74.1116 4.65526 74.1029C2.20403 74.0994 0.506495 72.794 0.0829753 70.5968C-0.00864326 70.1188 0.00345731 69.6182 0.00172865 69.128C0 47.8479 0 26.5679 0 5.28611C0 2.21805 0.674174 1.18725 3.45731 0H54.112C55.8234 0.577109 57.1043 1.59053 57.4708 3.46961C57.5641 3.94764 57.5659 4.44652 57.5659 4.93672C57.571 19.2654 57.5728 33.594 57.5589 47.9244C57.5589 48.5606 57.6765 48.9552 58.3023 49.282C59.7578 50.0416 60.5927 51.328 60.6722 52.9724C60.7673 54.954 61.2289 56.7514 62.3819 58.4167C63.604 60.1793 63.5695 62.1088 62.3611 63.8697C61.2548 65.4828 60.7535 67.2176 60.6722 69.1453C60.6446 69.7903 60.432 70.4578 60.1675 71.054C59.96 71.5251 60.0655 71.7632 60.3905 72.0865C62.6827 74.3654 64.9524 76.6686 67.2429 78.9527C67.7338 79.4412 68.1677 79.9296 67.9326 80.6893C67.6923 81.468 67.0095 81.5619 66.3543 81.6836C64.7173 81.9843 63.0803 82.2833 61.3948 82.5927C61.1597 84.1937 60.8952 85.7581 60.7172 87.333C60.6377 88.0457 60.387 88.5932 59.8148 89.0035H58.9505C58.3973 88.4994 57.8234 88.0179 57.2962 87.4894C54.6514 84.8333 51.9685 82.2155 49.4083 79.4777C48.404 78.4034 47.251 77.8315 45.8888 77.769C44.3745 77.7012 42.9103 77.8767 41.7158 79.1179C38.7979 82.1512 35.7969 85.1028 32.8237 88.0839C32.5021 88.4072 32.1478 88.6975 31.8072 89.0035H30.9429L30.9463 89ZM54.7758 47.4898C54.8432 47.4672 54.9089 47.4464 54.9763 47.4238C54.9763 47.1439 54.9763 46.8641 54.9763 46.5842C54.9763 32.711 54.9763 18.8378 54.9763 4.96453C54.9763 3.10979 54.4716 2.60742 52.6098 2.60742C36.7391 2.60742 20.8666 2.60742 4.99581 2.60742C3.07354 2.60742 2.59471 3.08719 2.59471 5.01668C2.59471 26.3628 2.59471 47.7071 2.59471 69.0532C2.59471 71.0418 3.0528 71.5007 5.03902 71.5025C13.2484 71.5025 21.4578 71.5025 29.6671 71.5025H30.5436C30.3361 70.4404 30.0181 69.4617 29.98 68.4726C29.9195 66.9412 29.5167 65.5801 28.6386 64.3355C27.0984 62.1575 27.1554 59.9707 28.6887 57.8152C29.5202 56.6471 29.9282 55.3695 29.9506 53.925C29.9887 51.4688 31.0034 49.6036 33.42 48.7762C35.0605 48.213 36.3363 47.2378 37.389 45.8611C38.7737 44.0498 40.632 43.3892 42.8326 44.0567C44.5456 44.5765 46.2034 44.5713 47.9165 44.055C50.0739 43.4049 51.8803 44.048 53.3099 45.795C53.7836 46.3739 54.2883 46.9266 54.7775 47.4916L54.7758 47.4898ZM49.3703 75.8447C50.1966 75.909 50.7809 75.4605 51.2148 74.8695C52.5943 72.9904 54.3609 71.6867 56.5667 70.9532C57.5762 70.6177 58.1017 69.8685 58.1208 68.7907C58.1622 66.5014 58.788 64.412 60.145 62.5468C60.8088 61.6342 60.8175 60.6434 60.1554 59.7204C58.8347 57.8778 58.1467 55.8353 58.138 53.5651C58.1329 52.3205 57.476 51.5592 56.3575 51.1889C54.3246 50.5145 52.6651 49.3428 51.4101 47.5907C50.672 46.5599 49.697 46.1844 48.4645 46.5946C46.4022 47.283 44.3382 47.2708 42.2742 46.5998C41.0071 46.1879 40.02 46.5981 39.2612 47.655C38.0425 49.355 36.4383 50.5231 34.4555 51.1594C33.2403 51.5487 32.573 52.364 32.5799 53.6521C32.5903 55.9066 31.866 57.9004 30.5799 59.7221C29.9212 60.6539 29.942 61.6308 30.5902 62.5538C31.8556 64.3529 32.5782 66.312 32.5695 68.5404C32.5644 69.8893 33.261 70.7446 34.554 71.1461C36.4607 71.7371 37.975 72.8896 39.173 74.4871C39.4133 74.8069 39.6812 75.1529 40.0166 75.3458C40.4194 75.577 40.9501 75.8516 41.3546 75.7665C44.0374 75.2085 46.703 74.8973 49.372 75.8499L49.3703 75.8447ZM38.9984 78.0158C38.2101 77.1832 37.3182 76.3644 36.5748 75.424C35.669 74.2768 34.3483 73.9308 33.1262 73.3798C32.9931 73.3207 32.7165 73.3972 32.6041 73.5102C30.6646 75.4414 28.7406 77.3883 26.7129 79.4342C28.0215 79.6811 29.1935 79.9349 30.3776 80.1174C31.2834 80.2564 31.7415 80.7171 31.8383 81.6436C31.9472 82.6866 32.1408 83.7191 32.2981 84.7534C34.5973 82.4432 36.8307 80.1973 38.9984 78.0193V78.0158ZM58.4371 84.7847C58.5979 83.7208 58.7915 82.6987 58.8935 81.6697C58.9903 80.7049 59.4656 80.2425 60.4112 80.1069C61.5815 79.9383 62.738 79.6759 64.0639 79.4221C62.012 77.3674 60.1053 75.4449 58.1692 73.5502C58.024 73.4076 57.6506 73.3885 57.4276 73.458C55.8216 73.9569 54.456 74.8156 53.4828 76.2375C52.9936 76.952 52.4784 77.649 51.9979 78.3217C53.8735 80.206 56.1086 82.4502 58.4354 84.7881L58.4371 84.7847Z" fill="#73431F"/>
<path d="M28.782 10.2124C34.1978 10.2124 39.612 10.2124 45.0278 10.2124C45.3442 10.2124 45.6657 10.1968 45.9769 10.2472C46.6251 10.3532 47.0002 10.7548 47.0417 11.4188C47.0832 12.0793 46.7772 12.5469 46.1411 12.7242C45.8161 12.8146 45.4583 12.8146 45.116 12.8146C34.2289 12.8181 23.3402 12.8181 12.4531 12.8146C12.1108 12.8146 11.7547 12.8146 11.428 12.7242C10.7901 12.5487 10.4859 12.0811 10.5257 11.4205C10.5654 10.7565 10.9405 10.3532 11.5888 10.2454C11.8982 10.195 12.2197 10.2107 12.5378 10.2107C17.9537 10.2107 23.3678 10.2107 28.7837 10.2107L28.782 10.2124Z" fill="#73431F"/>
<path d="M28.7786 33.2446C23.3645 33.2446 17.9486 33.2446 12.5345 33.2446C12.2182 33.2446 11.8949 33.262 11.5872 33.2081C10.9407 33.0986 10.5673 32.6936 10.5293 32.0296C10.4912 31.3673 10.7989 30.9014 11.4351 30.7276C11.7601 30.6389 12.1179 30.6407 12.4602 30.6407C23.3472 30.6372 34.236 30.6372 45.1231 30.6407C45.4653 30.6407 45.8232 30.6407 46.1481 30.7311C46.7843 30.9084 47.0885 31.3777 47.0436 32.0382C46.9986 32.7023 46.6201 33.1021 45.9753 33.2081C45.6659 33.2585 45.3443 33.2429 45.0263 33.2429C39.6121 33.2429 34.1962 33.2429 28.7821 33.2429L28.7786 33.2446Z" fill="#73431F"/>
<path d="M28.8754 20.4352C34.2895 20.4352 39.7054 20.4352 45.1195 20.437C45.4359 20.437 45.7591 20.4283 46.0651 20.4909C46.6753 20.616 47.0089 21.0245 47.0418 21.6468C47.0763 22.3056 46.7721 22.7732 46.136 22.9471C45.8092 23.0357 45.4514 23.0375 45.1091 23.0375C34.2221 23.0409 23.335 23.0409 12.448 23.0375C12.104 23.0375 11.7479 23.0357 11.4212 22.9436C10.785 22.7663 10.4877 22.2935 10.5274 21.6347C10.5655 21.0106 10.9026 20.6073 11.5128 20.4874C11.8205 20.4266 12.1437 20.437 12.4583 20.437C17.9313 20.4335 23.4024 20.4352 28.8754 20.4352Z" fill="#73431F"/>
<path d="M16.7696 63.9253C15.2138 63.9253 13.6598 63.934 12.104 63.9218C11.0754 63.9131 10.5205 63.4403 10.5188 62.6129C10.5188 61.7768 11.0512 61.3248 12.1057 61.3231C15.2155 61.3144 18.3254 61.3144 21.437 61.3231C22.488 61.3266 23.0239 61.7803 23.0221 62.6164C23.0221 63.4403 22.4621 63.9149 21.4352 63.9236C19.8795 63.9357 18.3254 63.9271 16.7696 63.9271V63.9253Z" fill="#73431F"/>
<path d="M16.7696 53.699C15.2138 53.699 13.658 53.706 12.104 53.6973C11.084 53.6921 10.5205 53.214 10.5205 52.3901C10.5205 51.5627 11.0737 51.0985 12.1091 51.0951C15.2207 51.0881 18.3306 51.0881 21.4421 51.0951C22.4741 51.0968 23.029 51.5644 23.0273 52.3936C23.0273 53.2158 22.4586 53.6921 21.4387 53.6973C19.8829 53.706 18.3271 53.699 16.773 53.699H16.7696Z" fill="#73431F"/>
<path d="M45.3684 71.8971C39.9473 71.7754 35.579 67.9077 34.8029 62.4669C34.6663 61.5108 35.0967 60.8207 35.8988 60.706C36.6404 60.6017 37.2091 61.1301 37.3613 62.0653C38.0821 66.5205 41.3786 69.3261 45.7383 69.194C49.7194 69.0741 53.1214 65.7661 53.4032 61.7403C53.6901 57.6605 50.8759 53.925 46.9605 53.1879C43.3701 52.5117 40.0009 54.1231 38.2342 57.3581C37.7208 58.2967 37.1849 58.6044 36.4762 58.3611C35.681 58.0881 35.3889 57.2277 35.8435 56.3481C37.4425 53.2523 39.9508 51.2932 43.3441 50.6222C49.047 49.4976 54.5199 53.1619 55.7818 58.8582C57.0212 64.4503 53.5293 70.084 47.9181 71.4973C47.0884 71.7058 46.2189 71.7667 45.3684 71.8953V71.8971Z" fill="#73431F"/>
</g>
<defs>
<clipPath id="clip0_160_4">
<rect width="68" height="89" fill="white"/>
</clipPath>
</defs>
</svg>
